<?xml version="1.0" encoding="utf-8"?>
<!-- Generator: Adobe Illustrator 25.1.0, SVG Export Plug-In . SVG Version: 6.00 Build 0)  -->
<svg version="1.1" id="Layer_1" xmlns="http://www.w3.org/2000/svg" xmlns:xlink="http://www.w3.org/1999/xlink" x="0px" y="0px"
	 viewBox="0 0 300 300" style="enable-background:new 0 0 300 300;" xml:space="preserve">
<style type="text/css">
	.st0{opacity:0.5;}
	.st1{opacity:0.79;fill:#3A6389;enable-background:new    ;}
	.st2{opacity:0.79;fill:#A6BED5;enable-background:new    ;}
	.st3{opacity:0.79;fill:#F3EBE9;enable-background:new    ;}
</style>
<g class="st0">
	<path class="st1" d="M261.9,244.5c2.7-3.2,5.2-6.7,7.6-10.1c2-2.9,4.1-5.8,6-8.7c1.7-2.2,3-4.9,4.3-7.4c1.1-2.3,2.3-4.7,3.3-7
		c2.2-5,4.1-10,5.7-15.2s2.9-10.4,3.8-15.7c0.4-2.4,0.7-4.7,1.1-7.1c0.1-0.9,0.2-1.8,0.3-2.8c0-0.1,0-0.2,0-0.3
		c0.2-1.8,0.3-3.7,0.4-5.5c0-0.9,0.1-1.8,0.1-2.7c0-0.5,0-1.1,0-1.7v0c0-2.9,0.1-5.8,0-8.7c0-0.1,0-0.2,0-0.2c0-2.6-0.2-5.1-0.4-7.7
		c0.2-8.4-0.3-16.8-1.9-25c0,0,0,0.1,0,0.1c-2.1-11.1-5.6-21.9-10.4-32l0.3,0.6c-3.7-7.6-7.9-14.9-12.5-22
		c-4.8-7.2-10.2-14-16.2-20.3c-11.8-12.3-26-22.2-41.3-29.6c-7.7-3.7-15.7-6.7-23.9-9c-3.9-1-7.8-1.9-11.8-2.6
		c-4.9-0.8-9.8-1.3-14.7-1.6c-8.3-0.6-16.6-0.5-24.8,0.2c-3.9,0.4-7.9,0.8-11.7,1.6c-2.3,0.4-4.6,0.8-6.9,1.3
		c-2.2,0.5-4.3,1.1-6.5,1.8c-2.3,0.6-4.5,1.3-6.7,2.1c-2.6,0.9-5.2,1.7-7.8,2.6c-2.4,0.8-4.7,1.8-7.1,2.7c-1.4,0.5-2.8,1-4.1,1.6
		c-1.5,0.6-2.9,1.4-4.3,2.1c-1.9,0.9-3.8,1.9-5.6,2.9c-1.9,1.2-3.7,2.5-5.5,3.7c-3.5,2.4-6.9,5-10.3,7.4c-3.9,2.9-7.7,5.9-11.2,9.1
		c-1.5,1.3-2.9,2.8-4.2,4.2c-0.4,0.4-0.8,0.9-1.2,1.4c-0.4,0.5-0.6,0.8-1,1.2c-0.7,0.7-1.4,1.5-2.1,2.4c-0.9,1-1.8,2-2.7,2.9
		c-1.9,2.1-3.8,4.3-5.6,6.5c-3.1,4-5.9,8.3-8.4,12.8c-1.1,2-2.2,4.1-3.2,6.1c-0.1,0.3-0.2,0.7-0.4,1c-0.3,0.6-0.6,1.3-1,2
		c-0.6,1.3-1.3,2.7-2,4c-0.4,0.9-0.7,2-1.2,2.9c-0.4,1.1-0.9,2.1-1.3,3.2c-0.9,2.6-1.8,5.1-2.6,7.7c-0.6,1.8-1.2,3.5-1.7,5.4
		c-0.6,2.3-1.2,4.5-1.7,6.7c-0.5,2.3-0.8,4.6-1.2,7c-0.4,2.4-0.8,4.7-1.3,7.1c-1,5.3-1.7,10.7-2,16.2c-0.3,4.6-0.2,9.1-0.3,13.7
		c-0.2,2.3-0.3,4.6-0.1,6.8c0,2.3,0.1,4.4,0.4,6.7c0,0.6,0,1.3,0,2c0.1,1.1,0.2,2.2,0.3,3.2c0.2,2.5,0.4,4.9,0.7,7.3
		c0.5,4.2,1.2,8.4,2.2,12.4c0.4,3.2,1.8,6.5,2.6,9.6c1,3.4,2.4,6.8,4.1,10c1.7,3.7,3.4,7.4,5.4,11c2,3.5,3.8,7,5.8,10.5l0.1,0.3
		c0.9,2.4,2.4,4.6,3.8,6.7c1.9,2.9,4.3,5.6,6.6,8.2c1.8,2,3.5,4,5.5,5.8c0.8,0.8,1.7,1.5,2.5,2.2s1.6,1.4,2.4,2.1
		c1.3,1.2,2.8,2.4,4.1,3.6c1.5,1.3,3.1,2.9,4.9,3.9c2.1,1.8,4.4,3.3,6.8,4.8c1.2,0.9,2.5,1.7,3.7,2.5c1.4,0.7,2.7,1.6,4,2.4
		c1.2,0.8,2.6,1.3,3.7,2.1c1.3,0.8,2.7,1.6,4.1,2.4c1.3,0.6,2.6,1.5,3.9,2.2c0.6,0.3,1.2,0.6,1.9,0.9c0.9,0.4,1.8,1,2.8,1.4
		c1.4,0.7,2.9,1.3,4.5,1.9c1.3,0.5,2.5,1,3.8,1.5c3.4,1.4,7,2.4,10.5,3.5c2.8,0.9,5.7,1.4,8.5,2c2.8,0.6,5.8,1.2,8.7,1.7
		c1.7,0.3,3.3,0.5,5,0.7c1.8,0.3,3.7,0.4,5.6,0.4c1.9,0.1,3.8,0.2,5.7,0.3c1,0,2,0.1,2.9,0.1c0.5,0,1,0,1.5-0.1c2.1,0,4.2,0.1,6.3,0
		s4.4,0.1,6.5-0.4c2.9-0.2,5.7-0.5,8.6-0.9c3.8-0.4,7.5-1.1,11.3-2c2.9-0.7,5.8-1.2,8.6-2c3.1-0.8,6.2-1.7,9.3-2.7
		c6.7-2.1,13.3-4.8,19.6-7.9c2.9-1.5,5.8-3,8.7-4.6c1.6-0.9,3.1-2,4.6-2.9c1-0.6,2.1-1.3,3-2.1c6.3-4.1,12.2-8.7,17.8-13.7
		c4.4-3.8,8.5-7.9,12.3-12.3C260.3,246.3,261.1,245.4,261.9,244.5L261.9,244.5z M257.8,237.6c-2.9,3.3-6,6.5-9.2,9.6
		c-1,0.8-1.9,1.7-2.9,2.6c-3.2,2.8-6.4,5.4-9.8,7.9c-1.8,1.3-3.6,2.7-5.5,3.9s-3.9,2.4-5.9,3.5c-1.2,0.5-2.4,1.1-3.5,1.8
		c-1.6,0.7-3.2,1.5-4.8,2.3c-8.3,3.9-16.9,7-25.7,9.3l0.5-0.1c-2,0.4-3.9,0.8-5.8,1.2c-2.3,0.4-4.6,0.8-6.9,1.1
		c-2.5,0.3-5,0.5-7.5,0.7c-5.1,0.3-10.1,0.4-15.2,0.2c-0.8-0.2-1.7-0.2-2.5-0.2l-2-0.1c-2.3-0.2-4.6-0.5-6.9-0.7l-0.7-0.2
		c-0.9-0.1-1.8-0.3-2.7-0.4c-2.1-0.3-4.2-0.8-6.3-1.2l1,0.3c-2.1-0.6-4.2-1.2-6.3-1.6c-2.2-0.5-4.3-1.1-6.4-1.7
		c0.9,0.3,1.7,0.6,2.6,0.9c-2.1-0.7-4.2-1.4-6.3-2.1c-2.2-0.9-4.5-1.7-6.7-2.7c-1.3-0.6-2.7-1.1-4-1.7c-1.3-0.6-2.9-1.1-4.2-1.8
		c-1.2-0.6-2.6-1.2-3.8-1.8c-1.1-0.5-2.2-1.2-3.3-1.7c-2.9-1.4-5.7-3-8.5-4.6l0.6,0.4c-1.2-0.7-2.3-1.5-3.5-2.2
		c-0.8-0.6-1.7-1.3-2.5-1.9c-1.3-0.9-2.5-2.1-3.8-3c-1.2-0.9-2.3-1.9-3.3-2.9c-1.2-1.1-2.4-2.1-3.7-3c-1.2-1.2-2.4-2.4-3.7-3.5
		c-1.3-1.2-2.6-2.5-3.8-3.7l-0.8-0.9l-0.1-0.1c-0.8-1-1.6-1.9-2.5-2.9c-0.9-1-1.8-2.1-2.7-3c-2.6-3.2-5.2-6.3-7.8-9.4
		c0.6,0.6,1.1,1.3,1.7,2c-0.7-0.9-1.5-1.7-2.2-2.6c-0.9-1.3-2-2.4-3.1-3.5l-0.1-0.2c-1.5-1.9-2.9-3.9-4.2-5.9
		c-1.7-2.7-3.2-5.5-4.7-8.3c-0.2-0.5-0.5-1-0.8-1.6c-0.7-1.6-1.4-3.2-2.1-4.8c-0.8-1.8-1.7-3.6-2.6-5.4c-0.8-2.1-1.5-4.2-2.5-6.2
		c-1.2-3.2-2.4-6.4-3.6-9.7c-0.7-2-1.3-4-1.9-6c-0.5-1.9-0.7-3.8-1.4-5.6c-0.2-1.5-0.5-2.9-0.8-4.4c0,0.3,0.1,0.6,0.2,0.9
		c-0.4-2.5-0.6-5-1.2-7.4c-0.6-5.6-0.4-11.2-0.1-16.8c0-0.8,0.1-1.7,0.2-2.5c0.3-3.7,0.7-7.3,1.3-11c0.6-3.6,2-7,2.9-10.5
		c-0.2,0.7-0.5,1.4-0.7,2.1c0.7-2.1,1.4-4.1,2-6.1c0.5-1.5,1.1-3,1.6-4.5l-0.4,1.4c1.1-3.2,2.7-6.2,4-9.3c0.7-1.6,1.6-3.1,2.3-4.7
		c0.7-1.6,1.6-3.2,2.4-4.8c1.6-2.4,3-4.9,4.6-7.4c0.6-0.9,1.3-1.9,1.9-2.8c0.6-0.8,1.2-1.7,1.7-2.5l-0.4,0.5
		c0.2-0.2,0.3-0.5,0.5-0.7l1-1.5c-0.2,0.3-0.5,0.7-0.7,1.1l1.6-2.4c1-1.5,2.1-3,3.1-4.6c1.3-1.9,2.8-3.6,4.2-5.3
		c1-1,1.9-2.1,2.9-3.1L56.2,61c3.3-2.9,6.3-6,9.4-9.1c2.2-2.2,4.4-4.2,6.7-6.2C77,42,81.9,38.8,86.9,36c2.6-1.5,5-3.1,7.6-4.6
		c1.3-0.7,2.5-1.6,3.7-2.3c1.6-0.9,3.2-1.7,4.8-2.5l-0.2,0.1l0.6-0.3c2.1-1,4.1-1.8,6.3-2.6c2.2-0.7,4.4-1.5,6.7-2.2
		c2.2-0.6,4.4-1.1,6.5-1.7c2.4-0.6,4.8-1.2,7.3-1.7l2.3-0.4l-0.3,0c9.8-1.9,19.9-2.6,29.9-2.1c13.4,1,26.6,3.6,39.3,7.8
		c5.4,1.8,10.7,4,15.8,6.5c5.4,2.8,10.6,5.8,15.6,9.1c10.6,7.2,20.2,15.7,28.6,25.4c3.1,3.7,6.1,7.6,8.8,11.6
		c2.8,4.2,5.2,8.7,7.4,13.2c1.4,3,2.9,6.1,4.2,9.2c1.5,3.4,2.7,7,3.8,10.5c2.3,6.7,4.1,13.6,5.4,20.5c0.1,0.6,0.2,1.3,0.3,1.9
		c0.7,4.1,1.4,8.3,1.9,12.4c0,2.6,0,5.1-0.2,7.7v0.1c0,0.8-0.1,1.5-0.1,2.3v-0.2c-0.1,2.1-0.3,4.3-0.6,6.4c-0.3,1-0.3,2.2-0.5,3.2
		c-0.3,2.2-0.7,4.3-1.1,6.4l0,0c0,0.2-0.1,0.5-0.1,0.7c-0.4,1.9-0.8,3.8-1.3,5.7c-1,4.1-2.1,8.1-3.4,12.1c-2.3,6.5-4.9,12.9-8,19.1
		c-3.3,6.6-7.3,12.9-11.1,19.3C263.8,230.5,260.9,234.1,257.8,237.6L257.8,237.6z M217,268.8l-0.5,0.2L217,268.8z M161.3,15.7
		l-0.7,0L161.3,15.7z M21.3,137.5l0-0.6L21.3,137.5z M28.7,105.8c0.1-0.2,0.1-0.5,0.2-0.7C28.8,105.4,28.8,105.6,28.7,105.8z
		 M292.2,118.4c0,0.1,0,0.2,0,0.3C292.2,118.6,292.2,118.5,292.2,118.4z"/>
	<path class="st2" d="M253.7,239.2c3.4-3.9,6.5-8.1,9.4-12.4c-0.2,0.4-0.5,0.7-0.7,1.1c2.8-4.1,5.2-8.5,7.6-12.8
		c2.7-4.9,4.6-10,6.5-15.1c0.8-2.2,1.6-4.4,2.3-6.6c0.6-1.4,1.3-2.9,1.9-4.3c3-6.9,5.4-14.2,7.1-21.5c1.8-8.3,2.9-16.8,3-25.3
		c0.2-8.3-0.7-16.5-1.9-24.7c-0.6-4-1.5-8-2.4-11.9c-0.9-3.9-2.3-7.7-3.6-11.6c-2.9-8.5-6.8-16.6-11.6-24.1
		c-0.5-0.9-1.2-1.7-1.8-2.5c-0.6-0.8-1.2-1.7-1.8-2.6c-1.2-1.7-2.5-3.3-3.8-4.9c-3.1-4-6.5-7.7-9.9-11.5c-3.2-3.6-7.1-6.7-10.8-9.8
		c-3.7-3-7.5-5.9-11.5-8.6l0.1,0c-3.5-2.5-7.2-4.9-10.9-7.1c-1.5-0.9-2.9-1.9-4.4-2.7c-1.8-1-3.6-2-5.4-3c-1.5-0.9-2.9-1.8-4.4-2.5
		c-1.8-0.9-3.7-1.7-5.5-2.5c-1.5-0.7-3-1.4-4.6-1.9c-2.5-0.9-5-1.8-7.6-2.6c-4.5-1.5-9.1-2.8-13.7-3.8c-5.8-1.2-11.7-1.9-17.7-1.9
		c-2.4,0-4.7-0.1-7-0.1c-2.7,0-5.4,0.3-8,0.5c-5.8,0.4-11.6,1.7-17.4,2.8c-1,0.2-1.9,0.5-2.9,0.9c-1.1,0.4-2.6,0.6-3.7,0.9
		c-2.3,0.6-4.6,1.3-6.8,2.2c-2.2,0.8-4.5,1.5-6.7,2.2c-2.6,0.9-5,2-7.5,3c-5.5,2.2-10.7,5.1-15.7,8.1c-0.8,0.5-1.6,1.1-2.4,1.7
		c-1.2,0.8-2.4,1.6-3.5,2.5c-2,1.5-3.9,3.2-5.8,4.9c-2.2,1.8-4.3,3.6-6.4,5.6c-2.3,1.9-4.5,3.9-6.6,6.1c-0.9,1-1.9,1.9-2.9,2.9
		c-0.8,0.9-1.6,1.9-2.4,2.9c0-0.1,0.1-0.2,0.2-0.3c-4.1,4.8-7.6,10.1-11.1,15.3c-1.5,2.2-3,4.4-4.4,6.7c-1.4,2.1-2.8,4.3-4.1,6.5
		c-0.8,1.5-1.7,2.9-2.6,4.3c-0.9,1.4-1.6,3.2-2.4,4.7c-3.2,6.3-5.4,13-7.2,19.8c-0.4,1.5-0.7,3-1,4.5c-0.3,1.5-0.7,3.1-1,4.7
		c-0.5,3-1.1,6.1-1.5,9.2c-0.2,1.7-0.5,3.3-0.8,5c-0.2,1.7-0.4,3.3-0.6,5c-0.4,3.5-0.6,7-0.6,10.5c-0.2,4-0.2,8,0,12
		c0.1,2.3,0.5,4.5,0.7,6.8c0.2,2.1,0.6,4.2,1,6.2c0.4,2.4,0.8,4.8,1.3,7.1c0.1,0.8,0.4,1.6,0.7,2.4c0.3,1.1,0.5,2.2,0.8,3.3
		c1,4.2,2.3,8.5,3.7,12.5l0,0c0.3,1.3,0.6,2.6,1.1,3.9c0.6,1.9,1.5,3.8,2.3,5.6c1.8,4.3,3.8,8.5,6.2,12.4c0.7,1.2,1.4,2.5,2.1,3.7
		c1,1.8,2.2,3.4,3.3,5.1c1,1.5,2.3,2.9,3.3,4.4c1,1.3,2,2.6,3,3.8c3.1,3.8,6.3,7.6,9.8,11.1c3.2,3.3,6.7,6.3,10.2,9.3
		c7.6,6.4,15.8,11.9,24.5,16.6c8.3,4.5,17.3,7.2,26.4,9.6c4.5,1.2,8.9,2.7,13.5,3.4c2.1,0.3,4.1,0.7,6.1,1c2.1,0.2,4.2,0.4,6.2,0.6
		h-0.2c3.2,0.2,6.3,0.5,9.5,0.5c3,0,6,0,9-0.2c5.4-0.4,10.8-1.2,16.1-2.4c3.5-0.6,6.9-1.4,10.3-2.5c3-1,6.1-1.8,9-3.1
		c2-0.7,4-1.5,6-2.5c0.7-0.3,1.5-0.6,2.3-1c0.8-0.4,1.7-0.8,2.5-1.2l0.1-0.1c1.5-0.7,3-1.4,4.6-2.2c0.9-0.4,1.8-1,2.6-1.5
		c0.6-0.3,1.2-0.6,1.7-1c0.8-0.5,1.6-0.9,2.4-1.3c0.7-0.4,1.3-0.8,2-1.2c1.8-1,3.5-2.1,5.3-3.1c1.5-0.8,2.9-1.9,4.3-2.8
		c1.4-0.9,2.9-1.8,4.2-2.8c3.1-2.3,6.1-4.6,9-7.1c2.3-1.9,4.6-4,6.6-6.2c1.4-1.4,2.7-2.8,4-4.2C253.1,239.8,253.4,239.5,253.7,239.2
		L253.7,239.2z M250.4,226.2c-3.8,4.4-8.3,8.3-12.5,12.2c-1.1,0.9-2.2,1.7-3.2,2.7c-1.6,1.3-3.2,2.6-4.9,3.8
		c-1.5,1.2-3.1,2.2-4.6,3.4l0.1-0.1c-3.8,2.8-7.9,5.2-12.1,7.4c-1.7,0.8-3.3,1.5-5,2.2c-2.5,1-5,1.9-7.6,2.8
		c-1.6,0.2-3.1,0.9-4.6,1.4c-1.6,0.5-3.2,0.8-4.9,1.2c-1.6,0.2-3.2,0.6-4.7,1c-1,0.2-2,0.4-3,0.6c-12.2,2.2-24.8,2.5-37.2,1.7
		c-2.1-0.1-4.1-0.4-6.1-0.6c-1-0.1-2-0.3-2.9-0.5c-0.9-0.1-1.8-0.2-2.7-0.3c-2.8-0.5-5.6-1-8.4-1.5c-2.5-0.4-5-1.1-7.4-2
		c-5.8-2-11.5-4.9-17-7.6c-5.3-2.6-10.4-5.6-15.3-8.7c-4.3-3-8.6-6.2-12.4-9.8c-2.3-2.1-4.4-4.2-6.5-6.3c-1.6-1.6-3.1-3.2-4.6-5
		c-3.6-4.4-6.9-8.9-9.9-13.8c-1.4-2.3-2.9-4.7-4.2-7c-0.8-1.5-1.6-3-2.4-4.5c-0.7-1.4-1.5-2.8-2.3-4.2c-0.7-1.5-1.4-3-2.1-4.5
		l0.5,1.1c-0.5-1-0.9-2-1.4-2.9c-0.8-2.3-1.7-4.5-2.5-6.8c-0.8-2.5-1.5-5-2.1-7.5c-0.4-2-0.8-4-1.2-5.9c-0.9-5.1-1.3-10.2-1.8-15.3
		c-0.4-5.6-0.5-11.2-0.1-16.8c0.3-3.7,0.8-7.4,1.4-11.1c0.8-3.8,1.8-7.6,2.9-11.3c0.9-2.5,1.7-5,2.9-7.4c0.7-1.5,1.3-3.1,1.9-4.7
		c0.6-1.6,1.4-3.1,2.1-4.7c2.5-5.7,5.4-11.2,8.7-16.4c1.5-2.2,3.1-4.4,4.9-6.4c2.1-2.4,4.3-4.7,6.6-6.8l-1.6,1.3
		c1.4-1.2,2.8-2.5,4.2-3.8c1.9-1.5,3.7-3.1,5.5-4.8c1.7-1.3,3.2-2.7,4.9-4c1.9-1.5,3.9-2.8,5.9-4.1c1.7-1.2,3.6-2,5.4-3
		c2.1-1.2,4.2-2.4,6.4-3.5l-3.1,1.5c2.9-1.4,5.7-2.9,8.6-4.3c1.9-0.8,3.8-1.8,5.7-2.7l-2.5,1.2c2.2-1,4.4-2.1,6.7-2.9
		c2.2-0.8,4.3-1.6,6.4-2.3c2.3-0.8,4.6-1.2,6.9-1.8c1.3-0.3,2.6-0.6,3.8-0.9l1.5,0l1.2-0.2c4.9-0.9,9.8-1.4,14.7-1.8
		c2.7-0.2,5.3-0.2,8-0.3c2.7-0.1,5.4-0.1,8,0l-2.3-0.1c3.2,0.2,6.4,0.3,9.7,0.4c6,0.4,12.1,1.1,18.1,2.3c3.3,0.7,6.6,1.4,9.8,2.3
		c1.6,0.4,3.2,0.9,4.8,1.5c0.9,0.3,2,0.4,2.9,0.7l0.5,0.2c3.1,1.3,6.2,2.6,9.2,4.1c2.8,1.4,5.5,2.9,8,4.6c1.9,1.3,3.8,2.7,5.8,4
		c2,1.5,3.9,3.2,5.8,4.8c2.2,1.8,4.2,3.8,6.2,5.8c2.3,2.3,4.5,4.5,6.5,6.9l-0.6-0.7l1.2,1.4c1.9,2.3,3.7,4.8,5.5,7.1
		c1,1.4,2,2.9,2.8,4.3c0.9,1.6,2,3,3,4.5c0.9,1.3,1.6,2.8,2.5,4.1c0.9,1.4,1.8,2.9,2.6,4.4c1.4,2.5,2.7,5,3.9,7.6
		c2,4.4,3.7,8.9,5.2,13.5c1.6,4.7,2.9,9.5,3.9,14.4c2,11.5,2.7,23.1,2.1,34.7c-0.4,5.4-1.1,10.8-2.1,16.1c-0.5,2.8-1,5.5-1.7,8.3
		c-0.3,1.4-0.7,2.8-1.1,4.2c-0.6,1.2-1.2,2.5-1.8,3.7c-2.6,5-5.5,9.8-8.6,14.5l-0.6,0.9C258.9,216.5,254.7,221.4,250.4,226.2
		L250.4,226.2z M134,32l-0.9,0.2L134,32z"/>
	<path class="st3" d="M243.9,218.5c2.6-3.1,5.1-6.3,7.3-9.7c-0.3,0.4-0.5,0.8-0.8,1.2c1.2-1.6,2.3-3.3,3.4-5
		c4.8-7.2,8.6-14.9,11.4-23.1c-0.1,0.3-0.2,0.6-0.3,0.9c1.7-4.6,3.1-9.2,4.2-14c2.2-5.3,4-10.7,5.5-16.2c2.1-7.5,2.8-15.4,2.9-23.1
		c0.1-3.8,0.1-7.7-0.1-11.5c-0.2-4.1-0.8-8.1-1.7-12.1c-1.2-6.9-3.1-13.6-5.6-20.2c-2.7-6.9-5.7-13.9-9.9-20c-2-2.9-3.7-5.9-5.9-8.6
		c-2.9-3.5-5.6-7.2-8.7-10.5c-1.1-1.1-2.2-2.2-3.3-3.2c-1.1-1.2-2.3-2.3-3.5-3.2c-1.5-1.1-2.9-2.4-4.5-3.5c-1.9-1.5-4-2.9-6-4.1
		c-4.1-2.8-8.3-5.6-12.8-7.7c-2.4-1.2-4.7-2.5-7.1-3.7c-2.5-1.2-5.1-2.2-7.7-3.2c-3.2-1.3-6.6-2.3-10-3.1c-2.7-0.6-5.3-1.5-7.9-2.1
		c-1.2-0.3-2.5-0.4-3.7-0.6c-1.4-0.2-2.9-0.6-4.3-0.9c-1.4-0.3-2.9-0.5-4.4-0.8c-1.7-0.2-3.4-0.4-5.1-0.4c-2.5-0.2-5-0.4-7.5-0.5
		c-2.7-0.1-5.3,0-8,0.1c-2.9,0-5.8,0.2-8.7,0.6c-2.6,0.4-5.2,0.8-7.8,1.3c-6,1-12,2.6-17.8,4.5c-2.6,0.8-5.1,2-7.6,3
		c-3,1.1-5.9,2.5-8.8,4c-4.6,2.6-9.2,5.1-13.5,8.1c-2.2,1.6-4.6,2.9-6.8,4.6c-1.1,0.8-2.2,1.8-3.3,2.8c-1.1,0.9-2.1,1.7-3.1,2.6
		c-2.7,2.2-5.2,4.5-7.6,7c-1.6,1.8-3.3,3.5-4.9,5.3c-0.9,1.1-1.8,2.2-2.6,3.3c-0.7,1-1.6,1.9-2.4,2.9c-1.6,2-3,3.9-4.4,6
		c-3.2,3.9-5.8,8.5-8.3,12.9c-2.3,4.2-3.8,9-5.2,13.6c-1,2.9-1.9,5.8-2.8,8.7c-1.1,3-2,6.1-2.7,9.2c-0.3,1.5-0.7,3-0.9,4.5
		c-0.3,2.7-0.4,5.4-0.4,8.1c0,1.7,0.1,3.4,0.3,5.1c0.2,1.8,0,3.6,0,5.4c0,3.2-0.1,6.3,0,9.5c-0.1,2.4-0.2,4.9-0.3,7.3
		c0,2.6,0.3,5.2,0.8,7.8c0.8,5.3,2.1,10.4,3.7,15.5c0.7,2.1,1.3,4.2,2.3,6.3c1.1,2.5,2.1,4.9,3.3,7.3c1.7,4,3.6,7.8,5.6,11.7
		c0.8,1.5,1.7,2.9,2.7,4.3c0.6,0.8,1.1,1.7,1.7,2.6c0.6,0.9,1.2,1.7,1.9,2.5c1.7,2.4,3.5,4.8,5.5,7l0.8,1c1.1,1.3,2.3,3,3.5,4.1
		c1.4,1.2,2.6,2.7,4.1,3.8s2.7,2.2,4,3.3c0.8,0.7,1.7,1.4,2.5,2.1c0.9,0.7,1.9,1.3,2.9,1.8c1.3,1,2.7,1.9,4,2.8c1,0.7,2,1.5,3.1,2.1
		c1.3,0.7,2.7,1.4,4,2.2c2.4,1.3,4.9,2.5,7.3,3.8c4.7,2.6,9.5,5.2,14.6,6.8c2.5,0.9,5,1.8,7.6,2.6c4.2,1.5,8.6,2.8,13,3.7
		c4.8,1.1,9.8,1.6,14.7,1.9c1.7,0.1,3.4,0.2,5.2,0.3c1.5,0.1,2.9,0.2,4.4,0.3H153c4.8,0.3,9.6,0.2,14.4-0.2
		c5.6-0.5,11.1-1.3,16.6-2.5l-0.8,0.1c2.9-0.6,5.8-1.4,8.8-2c1.7-0.4,3.4-1.2,5.1-1.7c1.4-0.5,2.8-1,4.2-1.5c2.8-1,5.5-2.4,8.2-3.6
		c3.5-1.6,6.9-3.5,10.2-5.6c6.3-4,12-8.9,17.4-14.1c1-0.9,1.9-2,2.9-2.9C241.4,221.5,242.7,220,243.9,218.5L243.9,218.5z
		 M243.8,200.4c-3.2,3.7-6.6,7.3-10.3,10.6c-0.6,0.5-1.3,1.1-1.9,1.6l0.3-0.2c-9.4,8-19.9,14.4-31,19.9c-4.2,1.9-8.4,3.5-12.8,4.9
		c-2.4,0.7-4.8,1.5-7.2,2.2c-2,0.5-4,1.1-6.1,1.6l-2.1,0.4l0.5-0.1l-2.2,0.4c-7.2,0.9-14.4,1.3-21.6,1.3c-4.2-0.4-8.4-1.1-12.6-1.9
		c-2.3-0.4-4.5-1-6.8-1.5c-2.3-0.5-4.4-1.1-6.6-1.8c-0.7-0.2-1.4-0.5-2.1-0.7c-1.3-0.5-2.7-1.1-4-1.6c-2-0.8-3.8-1.8-5.7-2.7
		c-3.6-1.7-7.1-3.5-10.4-5.6c-4.6-3.4-8.7-7.5-12.9-11.4c0,0,0-0.1-0.1-0.2c-0.8-1.1-1.7-2.1-2.7-2.9c-0.7-0.7-1.5-1.5-2.2-2.3
		c-1-1.4-2.1-2.7-3.2-3.9c-1.3-1.7-2.7-3.3-4.1-5c-1.3-1.6-2.6-3.4-3.8-5.1c-0.7-1-1.3-2-2-3c-0.9-1.3-1.8-2.7-2.5-4
		c-2-3.7-4.2-7.3-6.1-11.1c-2.5-6.5-4.6-13.1-6.3-19.8l0.5,2.9c-0.4-2.4-0.9-4.8-1.5-7.2c-0.2-2.1-0.6-4.2-1.2-6.3c-0.6-2-1-4-1.4-6
		l0.5,2.8c-0.2-1.3-0.5-2.5-0.7-3.8c-0.2-2.7-0.4-5.3-0.4-8c0.1-1.7,0.3-3.4,0.8-5.1c0.8-2.9,1.6-5.9,2.2-8.9c0.5-2.8,1-5.7,1.5-8.5
		c0.5-2.7,1.1-5.3,1.9-7.8c1.6-4.1,3.3-8,5.4-11.8c2.7-5.1,4.9-10.4,8.1-15.2l-1.7,2.6c1.1-1.7,2.3-3.4,3.3-5.1
		c2.1-2.9,4.5-5.7,6.9-8.4c1.5-1.7,3.2-3.2,4.7-4.8c1.5-1.6,3-3,4.6-4.5c2.8-2.3,5.5-4.5,8.3-6.6c1.7-1.3,3.6-2.2,5.4-3.3
		c1.6-1,3.2-1.9,4.9-2.9c1.5-0.7,3-1.4,4.5-2.1l-0.9,0.4c2.1-1,4.3-2,6.4-2.9c1.2-0.5,2.5-0.8,3.7-1.2c1.4-0.4,2.9-1,4.3-1.5
		c2.3-0.7,4.7-1.4,7.1-1.8c2-0.4,4-0.9,6-1.3c1.6-0.2,3.2-0.4,4.9-0.5c2.6-0.2,5.1-0.6,7.7-0.8c2.3-0.1,4.7,0,7-0.1
		c1.9,0,3.7,0,5.7,0c1.7,0.1,3.4,0.3,5.1,0.4l-1.5-0.1c3.2,0.1,6.4,0.6,9.5,1.3c2.9,0.7,5.8,1.4,8.7,2.2c2.2,0.8,4.3,1.6,6.5,2.4
		c2.7,0.9,5.2,2.2,7.8,3.3c4.5,2,8.8,4.4,12.9,7.1c2.1,1.6,4.1,3.2,6.2,4.9c2.3,1.8,4.2,3.9,6.4,5.7c1.9,1.6,3.7,3.3,5.5,5.1
		c1.9,2,3.9,3.9,5.8,5.9c1.5,1.9,3.1,3.8,4.6,5.7c1.6,2.1,2.9,4.3,4.3,6.5c2.8,4,5.2,8.3,7.4,12.6c1.1,2.5,2.3,4.9,3.3,7.4
		c1.2,2.9,2.1,6.1,3.1,9.1c0.8,2.6,1.5,5.3,2.1,8c0.6,2.2,1,4.4,1.5,6.6c1.6,9.9,2.1,19.9,1.5,29.8c-0.3,4.2-0.8,8.4-1.6,12.5
		c-3,8-7,15.6-11.6,22.8C249.2,193.6,246.6,197.1,243.8,200.4L243.8,200.4z M89.4,217c-0.2-0.2-0.4-0.4-0.6-0.7L89.4,217z"/>
	<path class="st2" d="M266.9,236.8c1.1-1.3,2.1-2.6,3.1-4c2.3-3.1,4.6-6.3,6.6-9.7l-0.5,0.7c2.1-3.1,4-6.4,5.5-9.8
		c1.6-3.7,3.1-7.5,4.4-11.4l-0.1,0.4c1.6-3.6,2.2-7.7,2.9-11.5c0.5-2.6,0.9-5.2,1.2-7.8c1.2-3.9,2.2-7.9,2.9-11.9
		c0.9-4.7,1.6-9.5,1.9-14.3c0.3-4.6,0.2-9.3-0.2-14c-0.2-2.4-0.4-4.8-0.6-7.2c-0.3-2.8-0.8-5.6-1.4-8.3c-0.3-1.7-0.6-3.4-1.1-5.1
		c-0.4-1.8-1.1-3.5-1.7-5.3c-0.7-2-1.5-4-2.5-5.9c-0.9-2-1.8-4.1-2.7-6.1c-1.9-4.1-4-8.1-6.3-11.9c-0.5-0.8-1.1-1.5-1.6-2.3
		c-0.6-0.9-1.2-1.8-1.8-2.7c-1.4-2-2.9-3.9-4.5-5.7c-7.1-8.5-15-16.4-24.2-22.6c-2.7-1.8-5.4-3.7-8.2-5.4c-1.3-0.8-2.7-1.4-4-2.1
		c-1.3-0.7-2.7-1.4-4.1-2c-2.4-1.1-4.9-2.1-7.3-3c-3.4-1.3-6.9-2.5-10.6-3.6l1.2,0.4c-3.4-1.2-7-2.2-10.6-2.8
		c-4.2-0.7-8.4-1.2-12.7-1.4c-3.6-0.3-7.2-0.4-10.9-0.2c-1.6,0.1-3.1,0.1-4.7,0.2c-2.2,0.2-4.3,0.5-6.4,1.1
		c-2.3,0.3-4.5,0.7-6.7,1.2c-1.3,0.3-2.5,0.7-3.8,1c-1.4,0.4-2.9,0.5-4.2,0.9c-2.2,0.5-4.3,1.2-6.5,1.9c-2.4,0.7-4.7,1.5-7,2.3
		c-4.8,1.6-9.4,3.6-13.9,6c-2.4,1.2-4.7,2.7-6.9,4.4c-1.1,0.9-2.4,1.6-3.5,2.5c-0.8,0.6-1.6,1.3-2.4,2c-2.5,1.7-4.9,3.5-7.4,5.2
		c-2.9,1.8-5.7,3.9-8.2,6.2c-1,1-2.1,1.9-3.1,2.9c-0.7,0.6-1.3,1.4-2,2.1c-0.4,0.4-0.7,0.8-1.1,1.3c-1.8,2-3.6,3.9-5.4,5.9
		c-0.2,0.2-0.5,0.4-0.7,0.6c-0.4,0.5-0.8,1-1.2,1.5c-1,1.3-2.1,2.6-3.1,3.8c-1.1,1.3-2,2.7-3.1,3.9c-1.1,1.3-1.9,2.6-2.9,3.9
		c-1.4,1.9-2.6,3.9-3.8,5.9c-0.7,1.3-1.4,2.6-2.1,3.9c-1.6,3.3-2.9,6.7-3.8,10.2c-1.7,4.7-3,9.5-3.9,14.4
		c-0.8,5.3-0.7,10.7-0.7,16.1v0.2c-0.2,2-0.4,4-0.5,6c-0.3,3.9-0.4,7.9-0.3,11.9c0.1,1.8,0.4,3.7,0.4,5.5c0,1,0.1,2.1,0.3,3.1
		c0.1,0.9,0.3,1.7,0.4,2.6c0.3,2.9,0.8,5.8,1.4,8.7c0.2,1.6,0.5,3.2,0.9,4.9c0.3,0.9,0.5,1.8,0.8,2.7c0.3,0.9,0.5,1.8,0.8,2.7
		c0.2,0.8,0.7,1.5,0.9,2.3c0.5,1.9,1.4,3.6,2.1,5.5c0.9,2.5,2.1,4.9,3.4,7.3c0.9,2,2,3.9,3.1,5.8c0.7,1.1,1.3,2.3,2,3.3
		c0.7,1.1,1.5,2,2.2,3c1.3,1.9,2.8,3.7,4.2,5.5c1.7,2.2,3.4,4.4,5.3,6.4c0.9,1,1.8,2,2.7,3c1.5,1.7,3.1,3.4,4.7,5l-0.3-0.3
		c1.2,1.2,2.5,2.4,3.7,3.5c2.3,1.9,4.6,3.7,7,5.4l-2.2-1.5c2.7,2,5.5,3.8,8.2,5.6c1.9,1.3,4,2.4,6.1,3.2l-0.2,0
		c2.3,1.2,4.7,2.3,7.2,3.2c2.5,1.1,5,2,7.5,2.9c1.6,0.5,3.2,0.9,4.9,1.2c1.3,0.4,2.6,0.8,4,1.1c1,0.2,1.8,0.4,2.8,0.6
		c7.1,1.9,14.4,2.9,21.7,2.7c3.6-0.1,7.2-0.5,10.8-0.7c1.7-0.1,3.2-0.4,4.9-0.6c1.9-0.2,3.8-0.5,5.7-1c3.7-0.5,7.4-1.2,11.2-1.5
		c4.1-0.3,8.2-0.9,12.2-1.7l2.2-0.4c1.4-0.1,2.7-0.3,4-0.7c1.1-0.3,2.2-0.5,3.3-0.7c2.2-0.5,4.3-1.1,6.4-1.9c4-1.6,8-3.5,11.7-5.7
		c1.1-0.4,2.3-1.3,3.3-1.9c0.8-0.5,1.7-1,2.6-1.6c1.9-1.3,3.9-2.4,5.7-3.8c1.6-1.2,3.1-2.4,4.7-3.6c1.5-1.3,3-2.7,4.5-4
		c0.8-0.5,1.6-1.1,2.2-1.9c0.6-0.6,1.3-1.3,1.9-2c0.4-0.4,0.9-0.8,1.3-1.2C265.6,238.6,266.3,237.6,266.9,236.8L266.9,236.8z
		 M255.9,224.3c-1.4,1.5-3.1,2.9-4.4,4.4c-1,0.9-2,1.9-2.9,2.9c-0.2,0.2-0.4,0.5-0.6,0.7c-0.5,0.4-0.9,0.9-1.4,1.4l0,0
		c-0.7,0.6-1.7,1.2-2.4,2c-1.1,0.9-2.2,1.8-3.2,2.7c-1,0.7-2,1.5-2.9,2.3l0.4-0.3c-0.7,0.5-1.4,1-2.1,1.6c-0.8,0.6-1.7,1.2-2.6,1.7
		c-0.9,0.6-1.9,1.1-2.8,1.8c-2.8,1.7-5.7,3.2-8.6,4.8c-3,1.6-6.1,3.2-9.2,4.8c-1.2,0.4-2.4,1-3.5,1.6c-4.6,1.8-9.2,3.3-14,4.5
		c-1.2,0.2-2.3,0.4-3.5,0.5c-1.7,0.1-3.4,0.1-5.1,0.1c-2.8-0.3-5.5-0.6-8.3-1c-3.2-0.5-6.3-1.2-9.5-2c-1.9-0.6-3.7-1.1-5.6-1.7
		c-2.1-0.7-4.1-1.3-6.2-2l-1.6-0.5c-1.6-0.6-3.3-1.2-4.9-1.8c-0.8-0.4-1.6-0.8-2.4-1.2c-0.8-0.4-1.8-0.8-2.6-1.3
		c-1.3-0.9-2.8-1.6-4-2.4l1.6,1c-2.1-1.4-4.2-2.7-6.4-3.9c-0.9-0.6-1.8-1.2-2.8-1.8c-0.5-0.4-1.1-0.7-1.7-1.1l1.2,0.8
		c-2.3-1.6-4.4-3.4-6.7-5.1c-2.6-2-5.1-4.1-7.6-6.3c-3.8-3.3-7.5-6.9-11-10.6c-0.4-0.5-0.9-1-1.3-1.5c-4.4-5.5-7.7-11.7-11.2-17.8
		c-0.6-1.4-1.3-2.9-2.1-4.3c-0.6-1.5-1.3-3-2-4.5l0.1,0.2c-0.4-1.5-0.9-2.9-1.4-4.2s-1-2.9-1.6-4.4c-0.5-1.4-1-2.8-1.4-4.3
		c-0.3-1.3-0.8-2.5-1.2-3.8c-0.2-1.9-0.6-3.7-1.1-5.5c-0.9-5.9-1.7-11.9-1.6-17.8c0.4-2.7,1.1-5.4,1.8-8.1c0.8-2.6,1.4-5.2,2-7.8
		c0.6-2.7,1.3-5.4,2.1-8c0.8-2.2,1.6-4.3,2.5-6.4c0.5-1.4,1-2.8,1.5-4.2c0.2-0.5,0.4-1,0.7-1.6c0.4-0.9,0.7-1.9,1-2.8
		c1-2.9,2.3-5.6,3.6-8.3c1.3-2.5,2.7-5,4.2-7.3c1.5-2,2.9-3.9,4.6-5.7c0.9-1,1.8-2.1,2.7-3.1c0.4-0.5,0.9-1,1.3-1.5
		c0.4-0.4,0.8-0.9,1.1-1.4c1.9-2.2,3.9-4.3,5.9-6.4c1.2-0.9,2.4-1.8,3.6-2.7c0.7-0.4,1.5-0.8,2.3-1.2c1.1-0.6,2.1-1.2,3.1-1.8
		c1.3-0.6,2.7-1.3,4-1.9l0.6-0.3l0.1,0l-0.1,0l2.6-1.3c1.3-0.6,2.7-1.2,4-1.8l1.6-0.7c4.9-2.4,10-4.1,15.3-5.2
		c-0.8,0.1-1.6,0.3-2.4,0.4c2.3-0.4,4.5-0.9,6.8-1.4c1.7-0.2,3.4-0.2,5.2-0.4c2.2-0.2,4.4-0.2,6.6-0.1l-1.8-0.1
		c1.7,0.1,3.3,0.2,5,0.1c1.6-0.1,3-0.1,4.5-0.1c2,0.1,3.9,0.2,5.8,0.4c4.9,0.4,9.8,1.3,14.6,2.4c2.4,0.5,4.8,1,7.2,1.6
		c2.2,0.5,4.4,1.2,6.6,2c3.8,1.5,7.5,3.1,11.2,5c1.8,0.9,3.5,2,5.4,3c1.7,0.9,3.3,1.9,4.9,2.9c3.4,2.4,6.8,4.9,10.1,7.6
		c3.2,2.7,6.2,5.7,9,8.8c1.4,1.7,2.8,3.4,4.2,5.2c1.7,2.1,3.1,4.3,4.7,6.5c2.5,3.5,4.7,7.2,6.5,11c2,4.7,3.8,9.5,5.7,14.2
		c1.7,4.4,3,8.8,4,13.4c1.5,9.5,2.6,19.1,2.1,28.8c-0.2,2.5-0.4,4.9-0.8,7.2c-0.1,0.4-0.2,0.7-0.4,1.1c-1.5,4.1-3.2,8.1-5.2,12
		c-1.9,3.8-3.7,7.6-5.9,11.2c-0.8,1.3-1.7,2.5-2.6,3.8l0.5-0.7c-0.9,1.3-1.7,2.6-2.6,3.9c-0.5,0.7-1,1.5-1.5,2.2l0.4-0.6
		c-1,1.3-2,2.5-2.9,3.8C259.4,220.5,257.6,222.4,255.9,224.3L255.9,224.3z M133,72.4l0.4-0.2L133,72.4z"/>
	<path class="st1" d="M264.4,238.4c7-10.1,12.4-21.1,16.3-32.8c1-3,1.9-6.1,2.7-9.3c0.8-3.1,1.5-6.3,1.9-9.5c0,0,0-0.1,0-0.2
		c0.7-5,1.2-10.1,1.4-15.2c0.1-3.2,0-6.4-0.2-9.7c0-0.1,0-0.2,0-0.4c0.1-7.8-0.4-15.5-1.5-23.2c-1-6.5-2.6-12.9-4.6-19.2
		c-2.1-6.6-4.7-13-7.8-19.2c-1.5-3.1-3.1-6.2-5-9.1c-1.8-2.8-3.5-5.6-5.6-8.3c-4.1-5.6-8.7-10.9-13.5-15.8c-2.2-2.2-4.4-4.3-6.7-6.4
		c-2.7-2.4-5.5-4.7-8.5-6.8c-5.5-4.1-11.4-7.8-17.5-11c-3.3-1.7-6.7-3.2-10.1-4.6c-3.4-1.4-7.1-2.6-10.6-3.7
		c-3.3-1.1-6.8-1.9-10.2-2.7c-3.9-0.9-7.8-1.5-11.8-2c-4-0.5-7.8-0.8-11.7-1.1c-3.6-0.2-7.3-0.4-10.9-0.3c-1.7,0-3.3,0-5,0.1
		c-2,0.1-3.9,0.3-5.9,0.6c-3.9,0.5-7.9,1.1-11.7,2l2-0.4c-4.8,0.9-9.6,2.1-14.3,3.6c-4,1.2-7.9,2.7-11.7,4.3
		c-4.3,1.7-8.4,3.7-12.5,5.9c-3.8,2-7.5,4.4-11.2,6.6c-3.2,1.8-6.2,3.9-9,6.2c-3.1,2.6-6,5.4-8.7,8.4c-0.5,0.5-0.9,1.1-1.3,1.7
		c-0.6,0.8-1.4,1.5-2.2,2.3c-1.1,1.2-2.2,2.5-3.2,3.7c-2.5,2.9-4.7,5.9-6.8,9.1l-0.1,0.1l-1.5,2.2c-0.3,0.6-0.6,1.2-1,1.8
		c-1.7,2.5-3.2,5-4.9,7.5l0.6-0.9c-2.2,3.2-4.1,6.5-5.8,9.9c-0.9,1.8-1.8,3.7-2.6,5.6c-0.9,2-1.5,4.1-2.2,6.1c-0.7,2-1.5,3.9-2,5.8
		c-0.6,2.2-1.3,4.4-2,6.5c-0.2,0.8-0.4,1.6-0.6,2.5c-0.3,1.1-0.5,2.3-0.6,3.5c-0.2,2-0.6,4-0.9,6c-0.3,1.8-0.5,3.5-0.6,5.3
		c-0.2,2.2-0.5,4.4-0.7,6.6c-0.2,2.2-0.3,4.4-0.4,6.5c-0.1,2.2-0.2,4.3-0.2,6.4c0,3.8,0,7.8,0.4,11.6c0.4,4.4,1.1,8.8,2,13.2
		c0-0.1,0-0.3-0.1-0.4c1.5,8,3.5,15.9,6.4,23.4c1.5,3.8,3,7.5,4.9,11.1c1.8,3.6,3.7,7.2,5.8,10.6c3.6,6,7.7,11.8,12.3,17.1
		c2.2,2.5,4.4,5,6.7,7.4c1.3,1.3,2.6,2.6,3.9,3.9c1.3,1.3,2.6,2.4,3.9,3.6c2.2,2.1,4.6,4,7,5.9c1.4,1.1,2.9,2.2,4.4,3.2
		c1.7,1.2,3.4,2.4,5.2,3.5c3.1,2.1,6.4,3.9,9.8,5.6c1.8,0.9,3.6,1.8,5.5,2.6c2.1,0.9,4.2,1.7,6.2,2.5c3.6,1.3,7.3,2.4,11,3.5
		c3.8,1.1,7.7,2,11.6,2.7c3.2,0.6,6.6,1,9.9,1.4c4.2,0.5,8.6,0.7,12.8,0.9c4.2,0.1,8.4,0,12.5-0.5c2.1-0.2,4.1-0.4,6.2-0.8
		c1.8-0.3,3.8-0.4,5.6-1c5.9-1,11.7-2.6,17.4-4.5c0.5-0.2,1.1-0.5,1.7-0.6c0.8-0.3,1.7-0.6,2.6-0.9c1.7-0.6,3.2-1.3,4.9-2
		c3-1.3,6.1-2.6,9.1-3.9c5.8-2.6,11.2-5.8,16.4-9.3c9.4-6.4,18.1-14.1,25.7-22.6C258.3,246.7,261.5,242.7,264.4,238.4L264.4,238.4z
		 M252.5,248.4c-7.6,8.7-16.4,16.2-26,22.4c-5.4,3.4-11,6.5-16.8,9.2c-2.3,1.1-4.7,2.1-7.2,2.9c-2.8,0.9-5.6,1.8-8.4,2.6
		c-1.3,0.2-2.7,0.6-3.9,0.9c-1.9,0.4-3.7,0.8-5.6,1.2c-1.5,0.3-2.9,0.5-4.5,0.8c-1.5,0.3-3,0.5-4.5,0.5c-0.5,0-1,0.1-1.6,0.2
		c-0.9,0.1-1.8,0.2-2.8,0.2c-1.6,0.1-3.3,0.2-4.9,0.3c-5.8,0.3-11.6,0.2-17.3-0.2c-5.2-0.4-10.3-1.1-15.3-2.2
		c-5.2-1.1-10.4-2.5-15.4-4.2c-2.9-1.1-5.8-2.3-8.6-3.5c-1.5-0.6-2.9-1.4-4.3-2c-1.5-0.7-3-1.5-4.6-2.2c-1.5-0.7-3-1.6-4.5-2.5
		c-1.3-0.7-2.5-1.4-3.7-2.2c-2.3-1.4-4.5-2.8-6.7-4.2c-4-2.8-7.9-5.8-11.7-8.8c-1-0.8-1.9-1.8-2.9-2.6c-1.1-1-2.2-2.1-3.3-3.1
		c-1.8-1.8-3.5-3.6-5.1-5.5c-3.1-3.7-6.1-7.6-8.9-11.6c-3.4-5-6.5-10.3-9.1-15.8c-4.5-9.5-7.9-19.6-10-30
		c-0.9-5.4-1.5-10.8-1.9-16.2c-0.4-5.4-0.4-10.9-0.1-16.3c0.3-3.6,0.7-7.2,1.3-10.7c0.3-1.8,0.8-3.5,1.2-5.2
		c0.3-1.5,0.7-2.9,1.2-4.4c0.6-1.6,1.2-3.2,1.6-4.9c0.4-1.7,1-3.4,1.6-5.1c0.4-1.1,0.9-2.2,1.3-3.2c0.5-1.4,1.1-2.8,1.7-4.1
		c1.1-2.5,2.4-4.8,3.6-7.2c2.3-4.7,4.8-9.3,7.6-13.8c1-1.5,2.1-3,3.2-4.5c0.4-0.5,0.9-1.1,1.4-1.6c0.3-0.4,0.7-0.8,1.1-1.2
		c0.7-0.8,1.5-1.6,2.3-2.4c1.9-2,3.6-4,5.5-5.9c1.4-1.4,2.9-2.8,4.3-4.2c0.9-0.7,1.9-1.4,2.8-2.1c1.3-1.1,2.7-2.2,4-3.2
		c1-0.8,2-1.5,3-2.3c1.5-1.2,3-2.5,4.6-3.7c1.2-1,2.5-1.9,3.8-2.9c1.5-1.1,2.9-2,4.5-2.9c3.2-2,6.5-3.8,9.9-5.4
		c1.8-0.8,3.6-1.7,5.5-2.5c2.6-1.1,5.3-2.1,7.9-3c2.5-0.9,5.1-1.6,7.6-2.4c1.3-0.4,2.6-0.6,3.9-0.9c1.3-0.3,2.7-0.6,4.1-0.9
		c2.5-0.4,5-0.9,7.6-1.3c1.6-0.2,3.3-0.4,4.9-0.5c1.6-0.1,3.3-0.4,4.9-0.5c2.9-0.2,5.9-0.4,8.9-0.4c3-0.1,6.1,0,9.1,0.2
		c2.3,0.2,4.5,0.5,6.7,0.8c2.7,0.4,5.2,0.9,7.8,1.4c2.6,0.5,5.1,1.2,7.6,1.9c2,0.5,4,1.1,5.9,1.7c2.9,1,5.8,2.1,8.7,3.2
		c3,1.1,5.9,2.7,8.9,4.1c2.7,1.2,5.3,2.6,7.7,4c2.1,1.2,4.2,2.5,6.3,3.8c4.4,3,8.7,6.1,12.8,9.6c4.5,3.8,8.7,7.9,12.6,12.3
		c1.4,1.7,2.8,3.4,4.2,5.1c1,1.3,2.1,2.6,2.9,4c0.9,1.4,1.9,2.8,2.9,4.2c3.1,4.7,6,9.5,8.6,14.6c1.2,2.5,2.4,5.1,3.4,7.7
		c1.1,2.8,2.1,5.6,3,8.4c1.8,5.6,3.3,11.3,4.4,17c0.9,5.1,1.5,10.2,1.8,15.3c0,1.8-0.1,3.5-0.2,5.2c0-0.1,0-0.2,0-0.2
		c-0.4,6.2-1.2,12.5-2.3,18.7c0,0,0,0.1,0,0.1c-0.6,2.9-1.2,5.8-1.9,8.7c-0.5,1.9-1,3.8-1.6,5.8c-0.4,1.4-0.9,2.8-1.3,4.2
		c-1.9,5.5-4.1,10.8-6.6,16c-2.6,5.2-5.5,10.1-8.7,14.9C259.2,240.1,256,244.3,252.5,248.4L252.5,248.4z M284.8,178.4L284.8,178.4z
		 M184.5,287.5l-0.4,0C184.2,287.6,184.4,287.6,184.5,287.5z"/>
	<path class="st3" d="M280.3,205.7c5.6-10.5,9.5-22,10.8-33.8c0.3-2.9,0.5-5.8,0.5-8.8c0-3.2,0-6.3-0.1-9.5
		c-0.2-3.1-0.7-6.3-1.2-9.4c-0.5-2.9-1.1-5.9-1.8-8.8c-1-4-2.3-8-3.9-11.8c-1.4-3.4-2.9-6.7-4.5-10c-3.9-7.5-8.7-14.5-14.3-20.8
		l0.2,0.2c-0.7-0.9-1.5-1.7-2.3-2.5c-1.2-1.3-2.6-2.6-3.9-3.8c-0.6-0.6-1.2-1.2-1.9-1.7c-0.4-0.4-0.9-0.9-1.4-1.2
		c-0.8-0.7-1.7-1.4-2.6-2.1c0-0.1-0.1-0.1-0.1-0.1c-0.9-0.6-1.8-1.3-2.7-1.9l0,0c0.8,0.8,1.6,1.6,2.4,2.5c0,0,0,0,0.1,0.1
		c2,2.1,3.9,4.1,5.8,6.2l-0.1-0.1c1,1.2,2,2.4,3,3.6c0.7,0.8,1.3,1.7,2,2.5c4.5,5.9,8.3,12.2,11.5,18.9v0c1.8,3.8,3.4,7.8,4.7,11.8
		c1.4,4.5,2.5,9,3.3,13.6c0.7,4.1,1.2,8.2,1.4,12.3c0.2,4.3,0.3,8.7,0.1,13c-0.4,5.2-1.1,10.4-2,15.5c-1,5.2-2.3,10.4-3.9,15.4
		c-1.3,3.9-2.9,7.7-4.7,11.5c-2.2,4.4-4.6,8.7-7.3,12.8c-5.2,7.6-11.4,14.5-18.4,20.5c-6.5,5.6-13.7,10.2-21.3,14l0,0
		c-1.2,0.6-2.4,1.1-3.6,1.7 M223.7,255.1c11.9-4.4,22.9-10.9,32.5-19.2c3.5-3,6.8-6.3,9.9-9.8c5.5-6.2,10.3-13.1,14.2-20.4
		L223.7,255.1z M248.9,239.3L248.9,239.3L248.9,239.3z M285,164.2V164V164.2z M275.7,113.5c0-0.1-0.1-0.2-0.1-0.3
		C275.7,113.2,275.7,113.3,275.7,113.5z M227.4,253.4L227.4,253.4L227.4,253.4z"/>
	<path class="st3" d="M93.8,208.1c-0.2-0.4-0.4-0.8-0.6-1.3l0,0c-3.7-7.8-6.4-16.1-8.1-24.6l0,0.2l-0.3-1.6l0,0l0-0.1v0.1
		c-1.8-9.9-2.4-20-1.7-30c0.2-3.5,0.7-7,1.4-10.5c0.8-3.9,1.9-7.8,3.1-11.6l-0.1,0.2c2.9-8.5,6.7-16.5,11.5-24
		c0.2-0.4,0.5-0.8,0.8-1.2c0,0,0,0.1-0.1,0.1l0.1-0.2l0.1-0.2c0,0,0,0.1-0.1,0.1c1.2-1.8,2.5-3.5,3.8-5.2c1.6-2,3.3-3.9,4.9-5.8
		c1.5-1.8,3.1-3.4,4.8-5c1.9-2,3.9-3.8,6-5.6c3.4-2.9,7-5.5,10.8-7.9c4.1-2.6,8.3-5,12.7-7.2c4.2-2,8.6-3.7,13-5.2
		c4.6-1.6,9.2-2.9,13.9-3.8l-0.2,0c3-0.5,6.1-1,9.2-1.4c0,0,0.1,0,0.2,0c2.1-0.2,4.2-0.5,6.3-0.7c0,0,0,0,0,0
		c-2.1-0.2-4.2-0.3-6.3-0.3c-0.1,0-0.2,0-0.3,0c-5.9,0-11.9,0.7-17.7,1.8c-2.8,0.5-5.6,1.1-8.3,1.9c-3.1,0.9-6.2,2-9.2,3.2
		c-6.2,2.5-12.2,5.7-17.7,9.4c-5.6,3.8-10.8,8.2-15.6,12.9c-4.4,4.4-8.3,9.2-11.7,14.4c-3.7,5.5-6.9,11.3-9.6,17.3
		c-2.6,6-4.6,12.3-5.9,18.8c-1.3,6.1-2.2,12.4-2.7,18.7c-0.1,2.3-0.2,4.6-0.2,7c0,2.3,0.2,4.5,0.3,6.7c0.4,4.7,1.2,9.3,2.4,13.9
		C85.1,190.7,89,199.7,93.8,208.1 M93.8,208.1L93.8,208.1z M119.3,81.9l-0.2,0.2L119.3,81.9z M99.9,103.5L99.9,103.5l-0.1,0.1
		L99.9,103.5z M84.9,180.8L84.9,180.8L84.9,180.8L84.9,180.8L84.9,180.8z"/>
	<path class="st3" d="M174.5,262c-6.5-1.6-13-3.2-19.4-5.4l0.3,0.1c-10.1-3.4-19.5-8.4-28.5-14.2c-1.9-1.3-3.7-2.6-5.6-3.9
		c-1.5-1.1-2.9-2.3-4.4-3.3c-5.1-4.1-9.9-8.7-14.3-13.6l0,0l0,0l0,0l0,0l0,0c-0.5-0.5-0.9-1.1-1.4-1.7c-0.7-0.8,0,0,0,0
		c4,6.2,8.7,12,14,17.3c0.5,0.6,1.1,1.1,1.7,1.7c1,1,2.1,1.9,3.1,2.8c2.4,2.1,5,3.9,7.6,5.7c4.8,3.2,9.9,5.9,15.2,8
		C153,259.8,163.7,262.4,174.5,262L174.5,262L174.5,262L174.5,262z M102.9,221.9L102.9,221.9z"/>
	<path class="st2" d="M284.6,152.2c0.1-1.1,0.1-2.2,0.2-3.3c0.1-0.9,0.1-1.8,0-2.8c-0.2-8.5-1.4-16.9-3.6-25.1
		c-2.3-8.8-5.6-17.3-9.8-25.5c-2.3-4.4-4.9-8.6-7.8-12.5c-2.9-4.1-6-8-9.3-11.8c-3.2-3.5-6.6-6.8-10.3-9.9c-3.8-3.2-7.8-6.2-12-8.9
		c-8.1-5.6-17-9.7-26.2-12.8l0.7,0.2c-7.1-2.7-14.6-4.1-22.1-5.1c-3.7-0.4-7.4-0.6-11.1-0.6c-4.1,0-8.2,0.1-12.3,0.5
		c-15.9,1.4-31.3,5.8-45.5,13c0,0,0,0,0,0c7.9-3.5,16.1-6,24.5-7.7l-0.2,0c9.3-1.8,18.9-2.4,28.4-1.9c11.6,0.8,23,3,34,6.7l-0.7-0.2
		c0.9,0.3,1.9,0.6,2.8,0.9c9.7,3.5,19,8.1,27.7,13.8l2.9,2c2.2,1.5,4.2,3.1,6.2,4.8c1.9,1.6,3.8,3.2,5.6,5c3.4,3.2,6.7,6.5,9.8,10
		l-0.4-0.4c6.8,7.9,12.3,16.8,17,26.1c4.3,9.1,7.5,18.8,9.3,28.7v0C283.2,140.8,283.9,146.5,284.6,152.2
		C284.5,152.2,284.5,152.2,284.6,152.2L284.6,152.2L284.6,152.2z"/>
	<path class="st2" d="M248.2,239.5L248.2,239.5c-4.3,3.4-8.6,6.7-13.1,9.7c-2.3,1.5-4.6,3-7,4.4c-2.4,1.4-4.9,2.7-7.5,3.9
		c-4.7,2.2-9.6,4.2-14.5,5.8c-5.4,1.8-10.9,3.2-16.5,4.3c-2.5,0.4-4.9,0.8-7.4,1.2c-2.5,0.3-5.1,0.5-7.6,0.7
		c-5.2,0.4-10.5,0.4-15.7,0h0.3l-0.5,0h-0.1h0.1c-9.9-0.7-19.8-2.7-29.2-5.8c-10.6-3.6-20.7-8.5-30-14.6c-0.6-0.4-1.2-0.8-1.8-1.2
		c-8.2-5.7-15.7-12.4-22.2-20c-6.4-7.5-11.8-15.8-16.1-24.7c0,0,0,0,0,0.1c-2.9-6-5.2-12.3-7-18.7c0,0,0,0,0,0
		c3.2,12.7,8.4,24.8,15.4,35.9c6.9,10.9,15.5,20.6,25.5,28.8c9.6,8,20.6,14.3,32.4,18.6c11.2,4,23,6.3,34.8,7
		c8.5,0.4,17-0.1,25.3-1.6c8.2-1.4,16.2-3.7,23.8-6.9c7.3-3.1,14.4-6.9,20.9-11.4c6.2-4.2,12.1-9,17.1-14.6
		C247.8,240,248,239.8,248.2,239.5L248.2,239.5z M158.8,269.5L158.8,269.5h0.1H158.8L158.8,269.5z"/>
</g>
</svg>
