<?xml version="1.0" encoding="utf-8"?>
<!-- Generator: Adobe Illustrator 25.1.0, SVG Export Plug-In . SVG Version: 6.00 Build 0)  -->
<svg version="1.1" id="Layer_1" xmlns="http://www.w3.org/2000/svg" xmlns:xlink="http://www.w3.org/1999/xlink" x="0px" y="0px"
	 viewBox="0 0 300 300" style="enable-background:new 0 0 300 300;" xml:space="preserve">
<style type="text/css">
	.st0{opacity:0.9;}
	.st1{opacity:0.79;fill:#3A6389;enable-background:new    ;}
	.st2{opacity:0.79;fill:#A6BED5;enable-background:new    ;}
	.st3{opacity:0.79;fill:#F3EBE9;enable-background:new    ;}
</style>
<g class="st0">
	<path class="st1" d="M291.5,184.4c1.1-4.1,1.8-8.1,2.6-12.4c0.6-3.5,1.2-6.9,1.7-10.4c0.5-2.7,0.8-5.6,0.6-8.4c0-2.6,0-5.1,0-7.7
		c-0.2-5.4-0.8-10.7-1.5-16c-0.8-5.3-2-10.6-3.3-15.7c-0.6-2.3-1.4-4.5-2.1-6.8c-0.3-0.9-0.6-1.7-0.9-2.6c0-0.2-0.2-0.2-0.2-0.3
		c-0.6-1.7-1.2-3.5-2-5.1c-0.3-0.8-0.8-1.7-1.1-2.4c-0.2-0.5-0.5-1.1-0.8-1.5l0,0c-1.2-2.7-2.4-5.3-3.8-7.8c0-0.2,0-0.2-0.2-0.2
		c-1.2-2.3-2.4-4.5-3.6-6.6c-3.3-7.7-7.5-14.9-12.4-21.6v0.2c-6.6-9-14.3-17.2-23.1-24.3l0.5,0.5c-6.5-5.3-13.4-10.1-20.7-14.3
		c-7.4-4.4-15.1-8.1-23.1-11.2c-16-5.9-32.7-8.9-49.8-8.7c-8.4,0-16.9,0.8-25.3,2.3c-3.9,0.8-7.8,1.7-11.6,2.9
		c-4.7,1.4-9.4,3-13.9,5c-7.7,3-15.1,6.6-22.2,10.9c-3.3,2.1-6.6,4.1-9.8,6.5c-2,1.4-3.8,2.7-5.7,4.2c-2,1.5-3.3,2.9-5.1,4.4
		s-3.5,3-5.1,4.7c-2,2-3.9,3.8-5.9,5.7c-2,2-3.5,3.6-5.3,5.4c-1.1,1.1-2.1,2.1-3,3.2c-0.9,1.1-2,2.4-3,3.8c-1.4,1.7-2.6,3.3-3.8,5
		c-1.2,1.8-2.3,3.8-3.3,5.7c-2.1,3.6-4.1,7.4-6,11.2c-2.3,4.2-4.2,8.6-6,13c-0.8,1.8-1.4,3.8-2,5.6c-0.2,0.6-0.3,1.2-0.5,1.7
		c-0.2,0.5-0.3,0.9-0.5,1.5c-0.3,1.1-0.6,2-0.8,3c-0.3,1.2-0.8,2.6-1.1,3.8c-0.8,2.7-1.7,5.4-2.3,8.3c-1.1,5-1.8,10-2.1,15.1
		c-0.2,2.3-0.3,4.5-0.3,6.9l0.2,1.1v2.3c0,1.5,0,3,0,4.4c0,1.1,0.2,2.1,0.3,3.2s0.2,2.3,0.3,3.5c0.3,2.7,0.6,5.4,0.9,8
		c0.2,1.8,0.5,3.8,0.8,5.6c0.5,2.3,0.9,4.5,1.4,6.8c0.5,2.3,1.2,4.5,2,6.8c0.6,2.3,1.4,4.5,2,6.8c1.4,5.3,3,10.4,5.1,15.4
		c1.7,4.2,3.8,8.3,5.6,12.5c0.8,2.1,1.7,4.2,2.7,6.2c1.1,2,2,3.9,3.2,5.9c0.3,0.6,0.5,1.2,0.9,1.8c0.5,0.9,1.1,1.8,1.7,2.7
		c1.2,2.1,2.6,4.2,3.8,6.2c2.3,3.6,4.7,6.9,7.2,10.3c2,2.7,4.1,5.1,6.5,7.5c2.4,2.7,5.1,5.1,8,7.2c3.2,2.6,6.2,5.1,9.5,7.5
		c3.3,2.4,6.5,4.7,9.7,6.9l0.3,0.2c2,1.7,4.1,3.2,6.3,4.4c3,1.7,6.2,3.2,9.5,4.5c2.4,1.1,4.8,2.1,7.4,2.9c1.1,0.3,2.1,0.6,3.2,0.9
		c1.1,0.3,2,0.6,3,0.9c1.8,0.6,3.5,1.1,5.3,1.5c2,0.6,3.9,1.2,6,1.4c2.7,0.6,5.4,1.1,8.1,1.4c1.5,0.3,2.9,0.5,4.4,0.6
		c1.5,0.2,3,0.3,4.5,0.5c1.5,0.2,2.9,0.2,4.2,0.3c1.5,0.2,3,0.3,4.7,0.3c1.5,0,3,0.2,4.4,0.3h2.1c1.1,0,2.1,0,3,0.2
		c1.7,0,3.2-0.2,4.8-0.3c1.4,0,2.7-0.2,4.1-0.3c3.6-0.2,7.2-0.8,10.9-1.4c2.9-0.5,5.6-1.2,8.4-1.8c2.9-0.6,5.7-1.5,8.6-2.3
		c1.7-0.5,3.2-1.1,4.8-1.5c1.8-0.6,3.5-1.2,5.1-2c1.8-0.8,3.5-1.4,5.3-2.3c0.9-0.5,1.8-0.8,2.7-1.2c0.5-0.2,0.9-0.5,1.2-0.8
		c2-0.9,3.8-1.7,5.7-2.7c2-0.9,3.9-2,5.6-3.2c2.6-1.4,4.8-2.9,7.2-4.5c3.2-2,6.3-4.2,9.2-6.6c2.3-1.8,4.5-3.6,6.8-5.4
		c2.3-1.8,4.8-4.2,7.2-6.5c5.1-4.8,9.8-10,14.2-15.4c2-2.6,3.9-5.1,5.7-7.8c1.1-1.5,2-3,2.9-4.7c0.6-1.1,1.2-2.1,1.8-3.2
		c3.9-6.5,7.4-13.3,10.3-20.2c2.3-5.3,4.2-10.7,5.7-16.3C290.9,186.8,291.2,185.6,291.5,184.4L291.5,184.4z M284.8,180
		c-1.2,4.2-2.6,8.4-4.1,12.5c-0.6,1.2-0.9,2.4-1.5,3.5c-1.7,3.8-3.5,7.5-5.4,11.3c-1.1,2-2.1,3.9-3.3,5.9s-2.4,3.9-3.8,5.9
		c-0.9,1.1-1.7,2-2.4,3.2c-1.2,1.4-2.3,2.7-3.3,4.1c-5.7,6.9-12.1,13.4-19,19.3l0.5-0.3c-1.5,1.2-3.2,2.4-4.7,3.6
		c-1.8,1.4-3.8,2.7-5.7,3.9s-4.2,2.6-6.3,3.9c-4.4,2.6-8.9,4.7-13.6,6.8c-0.8,0.2-1.7,0.5-2.3,0.9l-1.8,0.8
		c-2.1,0.8-4.4,1.5-6.5,2.3l-0.8,0.2l-2.6,0.8c-2,0.6-4.2,1.1-6.2,1.7l1.1-0.2c-2.1,0.3-4.2,0.8-6.3,1.2s-4.4,0.9-6.5,1.2l2.7-0.3
		l-6.6,0.9c-2.4,0.2-4.8,0.5-7.2,0.6c-1.5,0-2.9,0.2-4.4,0.2s-3,0.3-4.5,0.2c-1.5-0.2-2.7,0-4.2,0s-2.4-0.2-3.8-0.2
		c-3.2,0-6.3-0.3-9.5-0.5l0.8,0.2c-1.4-0.2-2.7-0.3-4.1-0.5c-1.1-0.3-2-0.5-3-0.6c-1.7-0.3-3.2-0.8-4.7-1.1
		c-1.5-0.3-2.9-0.8-4.2-1.2c-1.5-0.5-3-0.9-4.7-1.2c-1.5-0.6-3.2-1.1-4.8-1.5c-1.7-0.5-3.3-1.2-5-1.7l-1.1-0.5h-0.2
		c-1.1-0.6-2.3-1.1-3.5-1.5l-3.6-1.7c-3.6-1.8-7.4-3.5-11-5.1l2.4,1.1l-3-1.4c-1.4-0.8-2.9-1.4-4.4-1.8l-0.3-0.2
		c-2.1-1.1-4.2-2.3-6.3-3.5c-2.7-1.7-5.3-3.5-7.7-5.4l-1.4-1.1c-1.4-1.2-2.6-2.3-3.9-3.5s-3-2.6-4.7-3.8c-1.7-1.5-3.2-3.2-4.8-4.5
		c-2.4-2.4-4.8-4.8-7.4-7.2c-1.5-1.5-2.9-3-4.2-4.5s-2.3-3.2-3.6-4.4c-0.9-1.2-1.7-2.4-2.6-3.6l0.6,0.8c-1.4-2.1-2.7-4.2-4.2-6.2
		c-2.9-4.8-5.3-9.8-7.2-15.1l-0.9-2.4c-1.4-3.5-2.6-6.8-3.5-10.4c-0.8-3.5-1.5-7.1-1.8-10.7l0.3,2.3c-0.3-2.1-0.5-4.2-0.8-6.3
		c-0.2-1.5-0.3-3.2-0.5-4.7l0.2,1.5c-0.5-3.3-0.3-6.8-0.5-10.1c0-1.8,0-3.5,0-5.3c0-1.8,0-3.6,0.2-5.3c0.5-2.9,0.6-5.7,0.9-8.6
		c0.2-1.1,0.3-2.3,0.5-3.3c0.2-1.1,0.3-2,0.5-3l-0.2,0.6l0.2-0.9c0.2-0.6,0.2-1.2,0.3-1.7c0,0.5-0.2,0.9-0.2,1.2l0.5-2.9
		c0.3-1.8,0.6-3.6,0.9-5.4c0.5-2.3,0.9-4.4,1.5-6.6c0.5-1.4,0.9-2.7,1.2-3.9l-0.8,1.5c1.8-3.9,3.2-8.1,4.5-12.2
		c1.1-2.9,2.1-5.7,3.3-8.4c2.6-5.1,5.6-10.1,8.9-14.8c1.7-2.4,3.2-5,4.8-7.4c0.8-1.2,1.5-2.4,2.3-3.6c1.1-1.5,2.1-2.9,3.3-4.2
		L56,57.7l0.5-0.6c1.4-1.8,2.9-3.5,4.5-5c1.7-1.7,3.3-3.2,5-4.8c1.7-1.7,3.5-2.9,5.1-4.4c1.7-1.5,3.8-3.2,5.7-4.7l2-1.4L78.5,37
		c8-5.9,16.6-10.9,25.8-14.8c12.4-4.8,25.3-8.1,38.6-10c5.6-0.6,11.3-1.1,17-0.9c18.7,0.3,37.3,4.4,54.4,11.9
		c9,3.9,17.5,9,25.2,15.2c2.6,2.1,5.1,4.2,7.7,6.5c2.7,2.4,5.3,5.1,7.8,7.7c4.8,5,9.4,10.4,13.6,16.1l1.1,1.5
		c2.4,3.3,4.8,6.8,6.9,10.4c1.1,2.3,2.1,4.7,3.2,6.9v0.2c0.3,0.8,0.6,1.4,0.9,2.1l-0.2-0.2c0.8,2,1.5,3.9,2.3,6
		c0.3,1.1,0.6,2.1,0.9,3.2c0.6,2.1,1.2,4.1,1.7,6.2l0,0c0,0.3,0.2,0.5,0.2,0.8c0.5,1.8,0.9,3.8,1.4,5.6c0.9,4.1,1.5,8.1,2.1,12.4
		c0.8,6.8,1.2,13.6,1.1,20.5c-0.2,7.4-1.1,14.6-1.7,22C286.9,171,285.9,175.5,284.8,180L284.8,180z M261.6,225.4l-0.3,0.5
		L261.6,225.4z M103.2,22.6l-0.6,0.3L103.2,22.6z M30.1,191.6l-0.3-0.6L30.1,191.6z M23,160.2l-0.2-0.8L23,160.2z M264.5,58.4
		l0.2,0.3L264.5,58.4z"/>
	<path class="st2" d="M281.8,183.2c1.4-5,2.3-10.1,3-15.2c0,0.5-0.2,0.9-0.2,1.4c0.8-4.8,1.1-9.8,1.4-14.8c0.2-5.4,0-11-0.6-16.4
		c-0.2-2.3-0.5-4.7-0.8-6.9c0-1.5,0-3-0.2-4.7c-0.3-7.5-1.2-14.9-2.7-22.3c-2-8.3-4.7-16.3-8.1-24c-3.5-7.4-7.5-14.6-12.4-21.3
		c-2.3-3.3-4.7-6.5-7.2-9.7c-2.6-3.2-5.4-5.9-8.1-8.7c-6.2-6.3-13.1-11.9-20.7-16.7c-0.9-0.6-1.8-0.9-2.7-1.5s-1.8-1.1-2.7-1.5
		c-1.8-1.1-3.6-1.8-5.4-2.7c-4.5-2.3-9.2-4.1-13.9-6c-4.5-1.7-9.2-3.2-13.9-4.2c-4.5-1.2-9.2-2.1-13.9-2.7h0.2
		c-4.2-0.8-8.4-1.4-12.8-1.7c-1.7-0.2-3.5-0.5-5.1-0.5l-6-0.5c-1.7-0.2-3.3-0.3-5-0.3c-2,0-4.1,0-6,0.2c-1.7,0-3.3,0.2-5,0.3
		c-2.6,0.3-5.3,0.6-7.8,0.9c-4.7,0.6-9.4,1.4-13.9,2.4c-5.7,1.4-11.3,3.3-16.7,5.9c-2.1,0.9-4.2,1.8-6.3,2.9
		c-2.4,1.2-4.7,2.6-6.9,3.9c-5,3-9.8,6.3-14.3,10c-0.8,0.6-1.5,1.4-2.1,2.1c-0.9,0.9-2,1.7-3,2.4c-1.8,1.5-3.5,3.2-5.1,4.8
		c-1.7,1.7-3.3,3.2-5,4.8c-1.7,1.7-3.6,3.9-5.4,5.9c-3.9,4.4-7.4,9-10.6,14c-0.5,0.8-0.9,1.7-1.4,2.6c-0.8,1.2-1.5,2.4-2.1,3.8
		c-1.2,2.3-2.1,4.5-3.2,6.9c-1.2,2.6-2.3,5.1-3.3,7.7c-1.2,2.7-2.4,5.4-3.3,8.3c-0.3,1.4-0.9,2.6-1.4,3.8c-0.3,1.2-0.6,2.4-0.8,3.6
		v-0.5c-1.5,6-2.7,12.2-3.3,18.6c-0.5,2.6-0.9,5.3-1.1,7.8c-0.2,2.6-0.8,5-0.9,7.5c-0.2,1.7-0.3,3.3-0.5,5c-0.2,1.7,0,3.5,0,5.3
		c0,6.9,0.6,14,2,20.8c0.3,1.5,0.8,3,1.1,4.5c0.3,1.5,0.8,3,1.2,4.7c0.9,3,1.5,6,2.6,8.9c0.5,1.5,0.9,3.2,1.5,4.8
		c0.6,1.7,1.1,3.2,1.7,4.7c1.1,3.3,2.4,6.5,3.9,9.7c1.5,3.6,3.2,7.2,5,10.7c1.1,2,2.4,3.8,3.5,5.7c1.1,2,2.3,3.5,3.6,5.1
		c1.4,2,2.9,3.9,4.2,5.9c0.5,0.6,1.1,1.2,1.7,1.8c0.6,0.6,1.4,1.8,2.1,2.6c2.7,3.3,5.6,6.6,8.7,9.7l0,0c0.8,1.1,1.7,2,2.7,3
		c1.4,1.5,3,2.7,4.4,4.1c3.5,3,7.1,5.9,10.9,8.4c1.2,0.8,2.3,1.7,3.5,2.4c1.7,1.1,3.5,2.1,5.1,3.2s3.3,1.7,4.8,2.6
		c1.5,0.9,2.9,1.5,4.4,2.1c4.4,2.1,8.9,4.1,13.6,5.7c4.2,1.5,8.7,2.9,13.1,4.1c9.5,2.4,19.3,3.9,29.1,4.4c9.4,0.5,18.6-1.1,27.8-2.7
		c4.5-0.8,9.2-1.5,13.6-2.7c2-0.6,3.9-1.1,5.9-1.8c2-0.8,3.9-1.4,5.9-2.1l-0.3,0.2c3-1.2,5.9-2.3,8.7-3.6c2.9-1.4,5.3-2.6,8-4.1
		c4.7-2.7,9-5.7,13.4-9c5.4-3.9,10.4-8.4,14.9-13.3c1.5-1.5,3-3.2,4.2-4.8c0.6-0.6,1.1-1.2,1.7-1.8s1.2-1.4,1.8-2.1v-0.2
		c1.1-1.4,2.1-2.6,3.2-3.9c0.6-0.8,1.2-1.7,1.7-2.4c0.5-0.5,0.8-1.1,1.1-1.7c0.5-0.8,1.1-1.5,1.7-2.3c0.5-0.6,0.9-1.2,1.4-2
		c1.2-1.7,2.3-3.5,3.5-5c1.1-1.4,1.8-2.9,2.7-4.4c0.9-1.5,1.8-2.9,2.6-4.2c1.8-3.3,3.5-6.8,5-10.3c1.2-2.7,2.4-5.6,3.3-8.4
		c0.6-1.8,1.2-3.6,1.8-5.6C281.7,184.1,281.8,183.6,281.8,183.2L281.8,183.2z M273.4,172.9c-1.5,5.6-3.9,10.9-6,16.3
		c-0.6,1.2-1.2,2.4-1.7,3.8c-0.9,1.8-1.8,3.6-2.7,5.4c-0.9,1.8-1.8,3.3-2.7,5v-0.2c-2.3,4.1-4.8,8.1-7.7,11.8
		c-1.2,1.4-2.3,2.7-3.6,4.1c-1.8,2-3.8,3.8-5.6,5.7c-1.2,1.1-2.4,2.1-3.5,3.2c-1.2,1.1-2.6,2.1-3.8,3.2s-2.6,2-3.8,3l-2.4,1.8
		c-10.1,7.1-21.1,13-32.6,17.3c-2,0.8-3.8,1.4-5.7,2.1c-0.9,0.3-2,0.6-2.9,0.9c-0.9,0.3-1.7,0.6-2.6,0.9c-2.7,0.8-5.4,1.5-8.1,2.3
		c-2.4,0.6-5,1.1-7.4,1.4c-11.9,0.9-24,0.6-35.9-0.8c-5.1-0.8-10.3-2-15.2-3.5c-2.9-0.9-5.7-1.8-8.6-2.9c-2.1-0.8-4.2-1.7-6.2-2.4
		c-5.1-2.4-10.1-5.1-14.8-8.1c-2.3-1.5-4.5-3-6.8-4.5c-1.4-0.9-2.7-2-4.1-3c-1.4-1.1-2.6-1.8-3.8-2.7c-1.2-0.9-2.6-2.1-3.8-3.2
		l0.9,0.8c-0.9-0.8-1.7-1.4-2.6-2c-1.7-1.7-3.5-3.3-5.1-5c-1.8-1.8-3.5-3.8-5.1-5.9c-1.2-1.7-2.4-3.2-3.6-4.8c-3-4.2-5.6-8.6-8.1-13
		c-2.7-4.8-5.3-9.8-7.2-14.9c-1.4-3.5-2.6-6.9-3.5-10.6c-0.9-3.8-1.7-7.5-2.3-11.3c-0.3-2.6-0.6-5.3-0.6-7.8c0-1.7-0.2-3.3-0.3-5
		c-0.2-1.7-0.2-3.3-0.2-5.1c-0.2-6.2,0-12.4,0.8-18.4c0.5-2.7,0.9-5.3,1.7-7.8c0.9-3,1.8-6,3-8.9l-0.8,1.8c0.8-1.7,1.5-3.5,2.1-5.3
		c1.1-2.1,2-4.4,2.9-6.6c0.9-1.8,1.8-3.8,2.7-5.7c1.1-2.1,2.3-4.2,3.5-6.2c1.1-1.8,2.4-3.3,3.5-5c1.4-2,2.7-3.9,4.2-5.9l-2.1,2.7
		c2-2.4,3.9-5,5.9-7.5c1.4-1.5,2.7-3.2,3.9-4.8l-1.7,2.1c1.5-1.8,3-3.8,4.7-5.4c1.7-1.7,3.2-3.3,4.8-4.8c1.7-1.5,3.5-3,5.4-4.5
		c1.1-0.9,2-1.7,3-2.4l1.4-0.8l0.9-0.8c3.9-2.9,8.1-5.4,12.4-7.8c2.3-1.4,4.7-2.4,7.1-3.6c2.4-1.2,4.7-2.4,7.2-3.3l-2.1,0.9
		c3-1.2,5.9-2.6,8.9-3.8c5.6-2.3,11.3-4.2,17.2-5.7c3.2-0.8,6.5-1.5,9.8-2.1c1.7-0.3,3.3-0.6,5-0.8c1.1-0.2,2-0.5,2.9-0.6l0.6-0.2
		c3.3-0.2,6.6-0.3,10-0.3c3,0.2,6.2,0.3,9.2,0.8c2.3,0.3,4.5,0.8,6.8,1.2c2.3,0.5,4.8,1.2,7.2,1.8c2.7,0.8,5.4,1.7,8,2.6
		c3,1.1,5.9,2.1,8.7,3.3l-0.8-0.3l1.7,0.8c2.7,1.2,5.3,2.7,8,4.1c1.5,0.8,3,1.7,4.4,2.7c1.5,1.1,3.2,1.8,4.7,2.7
		c1.5,0.9,2.6,1.8,3.9,2.7c1.4,0.9,2.9,1.8,4.2,2.9c2.3,1.7,4.5,3.3,6.8,5.1c3.6,3,7.1,6.5,10.4,9.8c3.5,3.5,6.6,7.2,9.7,11.2
		c6.6,9.4,12.4,19.5,16.7,30.2c2,5,3.6,10.1,5,15.4c0.8,2.7,1.5,5.4,2,8.1c0.3,1.4,0.6,2.9,0.8,4.2c0.2,1.4,0,2.7,0,4.1
		c-0.2,5.6-0.8,11.2-1.5,16.7c0,0.3-0.2,0.8-0.2,1.1C276.7,160.6,275.2,166.9,273.4,172.9L273.4,172.9z M85.7,48.8L85,49.4
		L85.7,48.8z"/>
	<path class="st3" d="M264.3,168.8c1.1-3.9,1.8-7.8,2.4-11.9l-0.3,1.5c0.3-2,0.6-3.9,0.9-5.9c1.2-8.4,1.4-17.2,0.3-25.6
		c0,0.3,0,0.6,0.2,1.1c-0.5-4.8-1.2-9.7-2.3-14.3c-0.3-5.7-1.1-11.3-2-16.9c-1.5-7.5-3.9-14.9-7.2-21.9c-1.5-3.5-3.2-6.9-5-10.3
		c-2-3.6-4.2-6.9-6.6-10.1c-4.1-5.6-8.6-10.9-13.6-15.7c-5.3-5.3-11.2-9.8-17.5-13.7c-3-1.7-5.9-3.8-8.9-5.1c-4.1-2-8-4.1-12.4-5.7
		c-1.5-0.6-2.9-1.1-4.4-1.5c-1.5-0.6-3-1.1-4.5-1.4c-1.8-0.3-3.6-0.9-5.4-1.2c-2.4-0.5-4.8-0.9-7.2-1.2C166,8.1,161,7.6,156,7.5
		c-2.7,0-5.3-0.2-8-0.3c-2.7-0.2-5.6,0.3-8.3,0.5c-3.5,0.3-6.9,0.8-10.3,1.5c-2.7,0.6-5.3,0.9-8,1.5c-1.2,0.3-2.4,0.8-3.5,1.1
		c-1.4,0.5-2.9,0.8-4.2,1.1c-1.4,0.3-2.9,0.8-4.2,1.2c-1.7,0.5-3.2,1.1-4.7,1.8c-2.3,0.9-4.7,1.8-6.9,2.7c-2.3,0.9-4.8,2.3-7.1,3.5
		c-2.6,1.2-5.1,2.7-7.5,4.4l-6.5,4.5c-5,3.5-9.7,7.4-14,11.6c-2,1.8-3.6,3.9-5.4,5.9c-2.3,2.3-4.2,4.8-6.2,7.4
		c-3.2,4.2-6,8.6-8.6,13.1c-1.4,2.4-2.9,4.7-4.2,6.9c-0.8,1.2-1.2,2.6-1.8,3.9c-0.6,1.4-1.2,2.4-1.8,3.6c-1.5,3-2.7,6.3-3.8,9.5
		c-0.8,2.3-1.5,4.5-2.1,6.8c-0.5,1.4-0.8,2.7-0.9,4.1c-0.2,1.2-0.6,2.4-0.9,3.6c-0.6,2.4-1.1,4.8-1.4,7.2c-1.1,5-1.7,10-1.8,15.1
		c-0.2,4.8,0.3,9.7,1.2,14.5c0.3,3,0.8,6,1.2,8.9c0.3,3.2,0.8,6.3,1.5,9.4c0.3,1.5,0.6,3,1.2,4.4c0.9,2.6,2,5,3.2,7.4
		c0.8,1.5,1.5,3,2.6,4.5c0.9,1.5,1.5,3.2,2.4,4.8c1.4,2.9,2.6,5.7,4.1,8.6c0.9,2.3,1.8,4.4,2.9,6.6c1.1,2.4,2.6,4.5,4.1,6.6
		c3,4.4,6.3,8.4,10,12.4c1.5,1.7,3,3.2,4.7,4.7c2,1.7,4.1,3.5,6,5.1c3.3,2.9,6.6,5.4,10,8c1.4,1.1,2.9,2,4.2,2.7
		c0.9,0.5,1.8,1.1,2.6,1.5c0.9,0.6,1.8,1.1,2.7,1.5c2.6,1.5,5.1,2.7,7.8,3.9l1.2,0.6c1.5,0.9,3.2,1.5,4.8,2.1
		c1.8,0.5,3.5,1.2,5.3,1.7c1.8,0.5,3.3,0.8,5,1.2c1.1,0.3,2.1,0.5,3.2,0.8c1.1,0.3,2.3,0.3,3.3,0.3c1.7,0.3,3.2,0.6,4.8,0.8
		c1.2,0.3,2.4,0.5,3.6,0.5c1.5,0.2,3,0.2,4.5,0.3c2.7,0.2,5.4,0.2,8.1,0.3c5.3,0.5,10.7,0.5,16-0.2c2.7-0.3,5.3-0.6,7.8-0.9
		c4.5-0.5,8.9-1.2,13.3-2.3c4.8-1.2,9.5-2.7,14-4.7c1.5-0.6,3.2-1.2,4.7-2s2.7-1.1,4.1-1.7l-0.3,0.2c4.4-1.8,8.7-3.9,12.8-6.3
		c4.7-2.9,9.4-6,13.7-9.4l-0.6,0.5c2.4-1.8,4.7-3.8,7.1-5.6c1.4-1.1,2.6-2.6,3.8-3.8s2.1-2.1,3-3.2c2-2.1,3.9-4.5,5.7-6.8
		c2.4-3,4.7-6,6.8-9.4c3.8-6.3,7.1-13.1,9.7-20.2c0.5-1.4,0.9-2.6,1.2-3.9C263.3,172.6,263.7,170.7,264.3,168.8L264.3,168.8z
		 M256.3,152.7c-1.2,4.7-2.9,9.4-4.7,13.9c-0.3,0.8-0.8,1.5-1.1,2.3l0.2-0.3c-5.1,11.2-11.6,21.6-19.2,31.1c-2.9,3.5-6,6.8-9.4,9.8
		c-1.8,1.7-3.6,3.3-5.6,5c-1.5,1.4-3.2,2.7-4.8,4.1l-1.7,1.2l0.5-0.3l-1.8,1.4c-6,3.8-12.4,7.4-18.7,10.4c-3.9,1.5-8,2.6-12.1,3.6
		c-2.3,0.6-4.5,1.1-6.8,1.5c-2.3,0.5-4.5,0.9-6.6,1.2l-2.3,0.3c-1.4,0.2-2.9,0.2-4.2,0.3c-2.1,0.2-4.2,0-6.3,0
		c-3.9,0-7.8-0.2-11.8-0.6c-5.6-1.2-11-2.9-16.4-4.7l-0.2-0.2c-1.2-0.6-2.4-1.2-3.6-1.5c-1.1-0.3-2-0.8-3-1.1
		c-1.5-0.8-3-1.5-4.5-2.1c-1.8-1.1-3.8-1.8-5.7-2.7s-3.8-2-5.6-2.9c-1.1-0.6-2-1.2-3-1.8c-1.4-0.8-2.7-1.7-4.1-2.6
		c-3.3-2.4-6.9-4.7-10.3-7.2c-5-4.8-9.7-9.8-14.2-15.1l1.8,2.4c-1.5-2-2.9-3.9-4.4-5.7c-1.2-1.8-2.4-3.5-3.8-5.1
		c-1.4-1.5-2.6-3.2-3.8-4.8l1.7,2.3c-0.8-1.1-1.5-2.1-2.3-3c-1.4-2.3-2.6-4.5-3.8-6.9c-0.6-1.5-1.2-3.2-1.5-4.8
		c-0.6-3-1.1-6-1.8-8.9c-0.8-2.9-1.5-5.4-2.3-8.3c-0.8-2.6-1.2-5.1-1.7-7.8c-0.3-4.4-0.5-8.6-0.3-13c0-5.7,0.2-11.5,0.8-17l-0.5,3
		c0.3-2,0.6-4.1,0.8-6c0.6-3.5,1.5-6.9,2.4-10.4c0.6-2.1,1.5-4.2,2.3-6.3c0.8-2.1,1.4-4.1,2.1-6c1.5-3.2,3-6.3,4.5-9.5
		c0.9-1.8,2.3-3.5,3.5-5.3c1.2-1.8,2.1-3.2,3.2-4.7c1.1-1.2,2.1-2.6,3.2-3.8L69,66.7c1.5-1.8,3-3.6,4.5-5.3c0.9-0.9,1.8-1.8,2.9-2.6
		c1.1-0.8,2.1-2.1,3.2-3.2c1.8-1.7,3.6-3.2,5.6-4.7c1.7-1.2,3.2-2.6,4.8-3.8c1.4-0.9,2.7-1.7,4.1-2.6c2.3-1.4,4.4-2.7,6.6-3.9
		c2.3-1.2,4.2-2,6.2-3c1.7-0.9,3.3-1.7,5.1-2.4c1.8-0.8,3.2-1.2,4.8-1.8l-1.4,0.6c2.9-1.2,6-2.3,9-2.9c2.9-0.6,5.9-1.2,8.7-1.8
		c2.3-0.2,4.5-0.5,6.8-0.6c2.9-0.3,5.6-0.3,8.4-0.5c4.8-0.2,9.8,0.2,14.6,0.9c2.6,0.5,5.1,1.1,7.7,1.7c2.7,0.6,5.4,1.7,8.1,2.3
		c2.4,0.6,4.8,1.4,7.1,2.3c2.6,0.9,5.1,1.8,7.7,2.9c2.3,1.1,4.4,2.1,6.5,3.2c2.1,1.1,4.4,2.6,6.6,3.9c4.2,2.4,8.3,5.1,12.1,8.1
		c2.1,1.7,4.2,3.5,6.2,5.1c2.4,2.1,4.5,4.5,6.6,6.8c1.8,2,3.6,4.2,5.3,6.2c1.5,1.7,2.9,3.5,4.2,5.3c5.6,8.1,10.4,16.9,14,26.1
		c1.5,3.9,2.9,7.8,3.9,11.9c0.6,8.4,0.5,16.9-0.6,25.3C258.1,144.4,257.2,148.6,256.3,152.7L256.3,152.7z M125.1,233.7
		c-0.3-0.2-0.6-0.2-0.8-0.3L125.1,233.7z"/>
	<path class="st2" d="M292.7,175.5c0.5-1.7,0.8-3.2,1.1-4.8c0.8-3.8,1.4-7.7,1.8-11.6l-0.2,0.9c0.6-3.6,0.8-7.4,0.8-11.2
		c-0.2-4.1-0.5-8.1-0.9-12.1c0,0.2,0,0.3,0,0.5c-0.3-3.9-1.1-7.8-2.3-11.6c-0.6-2.6-1.4-5-2.3-7.4c-0.6-4.1-1.5-8-2.6-11.9
		c-1.2-4.7-2.7-9.2-4.4-13.6c-1.7-4.2-3.8-8.4-6.2-12.4c-1.2-2.1-2.4-4.2-3.6-6.2c-1.5-2.4-3-4.7-4.8-6.8c-1.1-1.4-2.1-2.9-3.2-4.1
		c-1.1-1.2-2.4-2.7-3.8-4.1c-1.5-1.5-3-2.9-4.7-4.2c-1.7-1.4-3.3-2.9-5-4.4c-3.5-2.9-7.1-5.6-10.7-8c-0.8-0.5-1.7-0.9-2.4-1.4
		c-0.8-0.5-1.8-1.1-2.7-1.7c-2.1-1.2-4.2-2.3-6.5-3.2c-10-4.7-20.5-8.1-31.4-10c-3.2-0.5-6.3-1.1-9.7-1.4c-1.5-0.2-3-0.2-4.5-0.2
		c-1.5,0-3,0-4.5,0c-2.6,0-5.3,0.3-7.8,0.5c-3.8,0.2-7.4,0.6-11.2,1.2l1.2-0.2c-3.6,0.5-7.2,1.1-10.7,2c-4.1,1.2-8,2.6-11.9,4.2
		c-3.3,1.2-6.6,2.7-9.8,4.5c-1.4,0.8-2.7,1.5-4.1,2.3c-1.8,1.1-3.6,2.3-5.3,3.8c-1.8,1.4-3.8,2.6-5.4,4.1c-1.1,0.8-2,1.7-2.9,2.6
		c-0.9,0.9-2.3,1.7-3.5,2.6c-1.8,1.4-3.3,3-5,4.4c-1.7,1.4-3.6,3.3-5.3,5.1c-3.6,3.5-6.9,7.4-9.8,11.3c-1.7,2.1-3,4.4-4.2,6.8
		c-0.6,1.4-1.5,2.4-2.1,3.8c-0.5,0.9-0.9,1.8-1.2,2.7c-1.5,2.6-2.9,5.3-4.5,7.8c-1.8,2.9-3.3,5.9-4.7,9c-0.5,1.4-1.1,2.6-1.5,3.9
		c-0.3,0.9-0.6,1.8-0.9,2.7c-0.2,0.6-0.3,1.1-0.5,1.7c-0.8,2.6-1.5,5.1-2.3,7.7c-0.2,0.3-0.3,0.6-0.5,0.9c-0.2,0.6-0.3,1.2-0.5,2
		c-0.3,1.7-0.8,3.2-1.2,4.8c-0.5,1.7-0.6,3.2-1.1,4.8c-0.5,1.7-0.6,3.2-0.9,4.7c-0.5,2.3-0.8,4.7-0.9,6.9c0,1.5-0.2,3-0.3,4.4
		c0,3.6,0.3,7.2,0.9,10.9c0.5,5,1.4,9.8,2.7,14.6c1.7,5.1,3.8,10,6.3,14.6l0.2,0.2c0.6,2,1.4,3.8,2.1,5.6c1.4,3.8,3,7.2,4.8,10.9
		c0.9,1.7,2,3.2,2.7,4.8c0.5,0.9,1.1,1.8,1.7,2.6c0.5,0.8,1.1,1.4,1.5,2.1c1.5,2.4,3.2,4.8,5,7.1c0.9,1.4,1.8,2.7,2.9,3.9
		c0.6,0.8,1.2,1.4,2,2.1c0.8,0.8,1.2,1.4,2,2.1c0.8,0.8,1.2,1.1,1.8,1.7c1.2,1.5,2.9,2.7,4.2,3.9c2,1.8,3.9,3.5,6.2,5
		c1.7,1.4,3.5,2.7,5.3,3.9c1.1,0.6,2.1,1.5,3.3,2.1c1.2,0.6,2.3,1.2,3.3,1.8c2,1.2,4.1,2.1,6,3.2c2.4,1.2,5,2.4,7.5,3.5
		c1.2,0.5,2.4,1.1,3.8,1.5c2.1,0.9,4.2,1.7,6.3,2.4l-0.5-0.2c1.5,0.6,3.2,1.1,4.8,1.5c2.9,0.8,5.7,1.4,8.6,1.8l-2.6-0.3
		c3.2,0.6,6.5,1.1,9.8,1.5c2.3,0.3,4.7,0.5,6.9,0.3h-0.2c2.6,0.2,5.3,0,7.8-0.2c2.7,0,5.3-0.3,8-0.6c1.7-0.2,3.3-0.6,5-1.1
		c1.4-0.2,2.7-0.5,4.1-0.8c0.9-0.3,1.8-0.5,2.7-0.6c7.1-1.4,14-3.6,20.7-6.9c3.2-1.7,6.2-3.5,9.4-5.3c1.4-0.8,2.7-1.8,4.1-2.7
		c1.7-1.1,3.2-2.1,4.7-3.3c3.2-2.1,6.2-4.2,9.4-6c3.5-2.1,6.9-4.4,10.1-6.8l1.8-1.4c1.2-0.6,2.3-1.5,3.3-2.4
		c0.9-0.8,1.8-1.4,2.7-2.1c1.8-1.4,3.3-2.9,4.8-4.4c2.9-3.2,5.6-6.6,8.1-10.1c0.8-0.9,1.5-2,2.1-3.2c0.5-0.9,1.1-1.7,1.5-2.6
		c1.2-2,2.4-3.8,3.5-5.9c0.9-1.8,1.8-3.5,2.6-5.3c0.8-1.8,1.5-3.6,2.4-5.6c0.6-0.8,0.9-1.7,1.2-2.7c0.3-0.9,0.6-1.7,0.9-2.6
		c0.3-0.5,0.5-1.1,0.6-1.7C292.1,177.6,292.4,176.5,292.7,175.5L292.7,175.5z M277.4,169c-0.6,2-1.7,3.9-2.1,5.9
		c-0.5,1.2-0.9,2.6-1.5,3.8c-0.2,0.3-0.2,0.6-0.3,0.9c-0.3,0.6-0.5,1.2-0.8,1.8l0,0c-0.5,0.9-0.9,1.8-1.2,2.7
		c-0.6,1.2-1.2,2.6-1.8,3.8s-1.2,2.1-1.7,3.3l0.2-0.5c-0.5,0.8-0.8,1.5-1.2,2.3l-1.5,2.7c-0.6,0.9-1.2,1.8-1.8,2.9
		c-1.8,2.7-3.6,5.3-5.6,8l-6.2,8.3c-0.9,0.9-1.7,2-2.4,3c-3.3,3.6-6.8,6.9-10.6,10.1c-0.9,0.8-2,1.4-2.9,2c-1.5,0.9-3,1.7-4.5,2.3
		c-2.6,0.9-5.3,1.8-7.8,2.6c-3,0.9-6.2,1.7-9.4,2.3c-2,0.3-3.8,0.6-5.7,0.9l-6.3,0.9l-1.7,0.2c-1.7,0.2-3.5,0.3-5.1,0.5
		c-0.9,0-1.8,0-2.7,0s-2,0-2.9,0c-1.5-0.2-3-0.3-4.7-0.3l1.8,0.3c-2.6-0.3-5-0.6-7.4-0.8c-1.1-0.2-2.1-0.3-3.2-0.5l-2-0.3l1.4,0.2
		c-2.7-0.5-5.4-1.2-8.1-1.7c-3.2-0.6-6.3-1.5-9.5-2.4c-4.8-1.4-9.7-3-14.3-4.8l-2-0.9c-6.2-3.2-12.1-6.9-17.6-11.2
		c-1.2-1.1-2.4-2-3.6-2.9c-1.2-0.9-2.4-2.1-3.8-3.2l0.2,0.2c-1.1-1.2-2-2.1-3.2-3.2c-1.2-1.1-2.1-2.3-3.3-3.3
		c-1.1-1.1-2.1-2.1-3-3.2c-0.9-1.1-1.8-2-2.7-2.9c-1.1-1.5-2.1-3-3.3-4.5c-3.5-4.8-6.5-10-9-15.4c-0.8-2.6-1.4-5.3-1.8-8
		c-0.3-2.7-0.9-5.3-1.5-7.8c-0.6-2.6-1.1-5.4-1.7-8.1c-0.2-2.3-0.5-4.5-0.6-6.8c-0.2-1.5-0.3-3-0.5-4.4c0-0.6,0-1.2,0-1.7
		c0-1.1-0.2-2-0.3-3c-0.3-3-0.5-6-0.3-9c0.2-2.9,0.3-5.6,0.6-8.3c0.5-2.4,1.1-4.8,1.7-7.1c0.5-1.4,0.8-2.6,1.1-3.9
		c0.2-0.6,0.3-1.2,0.6-1.8c0.2-0.6,0.3-1.2,0.5-1.8c0.8-2.9,1.7-5.6,2.6-8.3c0.6-1.4,1.4-2.7,2.1-3.9c0.5-0.8,0.9-1.4,1.5-2.1
		c0.8-0.9,1.4-2,2.1-3c0.9-1.2,1.8-2.3,2.7-3.5l0.5-0.6l0.2-0.2v0.2l1.8-2.3c0.9-1.1,1.8-2.3,2.7-3.3c0.3-0.5,0.8-0.9,1.1-1.4
		c3.3-4.2,7.2-8,11.5-11.3l-2,1.4c1.8-1.4,3.6-2.7,5.4-4.2c1.4-0.9,3-1.7,4.5-2.6c2-1.1,3.9-2.1,5.9-3l-1.7,0.6c1.5-0.6,3-1.2,4.5-2
		c1.5-0.8,2.6-1.4,3.9-2l5.4-2.1c4.7-1.7,9.4-3,14.2-4.1c2.4-0.6,4.8-1.2,7.1-1.7c2.3-0.5,4.5-0.8,6.8-1.1c4.1-0.3,8.1-0.5,12.2-0.3
		c2,0,4.1,0.3,6,0.3c2,0,3.8,0.3,5.6,0.5c4.1,0.6,8.1,1.5,12.2,2.4c4.1,1.1,8,2.4,11.9,4.1c2,0.9,3.9,1.8,5.9,2.9
		c2.4,1.2,4.7,2.6,6.9,3.8c3.6,2.1,7.2,4.4,10.6,7.1c3.8,3.3,7.5,6.8,11.2,10.3c3.3,3.2,6.5,6.6,9.4,10.3
		c5.6,7.7,10.4,16.1,14.2,24.9c0.9,2.3,1.7,4.5,2.4,6.8l0.2,1.2c0.5,4.4,0.6,8.6,0.5,13c-0.2,4.2,0,8.3-0.6,12.5
		c-0.3,1.5-0.5,3-0.8,4.5l0.2-0.9c-0.3,1.5-0.5,3-0.6,4.7c-0.2,0.9-0.3,1.8-0.5,2.7l0.2-0.8c-0.3,1.5-0.8,3.2-1.1,4.7
		c-0.6,2.6-1.4,5-2,7.4L277.4,169z M102.2,85.6l0.3-0.5L102.2,85.6z"/>
	<path class="st1" d="M291.2,177.9c2-12.1,2.1-24.3,0.5-36.3c-0.3-3.2-0.9-6.3-1.5-9.5c-0.6-3.2-1.4-6.3-2.4-9.4v-0.2
		c-1.5-4.8-3.3-9.5-5.3-14.2c-1.4-2.9-2.7-5.7-4.4-8.6c0-0.2-0.2-0.3-0.2-0.3c-3.2-6.9-6.9-13.7-11.3-20.1
		c-7.7-11-17-20.8-27.6-29.1c-2.7-2.3-5.4-4.2-8.3-6c-2.9-1.7-5.6-3.5-8.6-5.1c-6-3.2-12.4-6-18.9-8.4c-2.9-1.1-5.7-2-8.7-2.9
		c-3.5-1.1-6.9-1.8-10.4-2.4c-6.8-1.4-13.6-2.1-20.4-2.3c-3.6,0-7.4,0-11,0.2c-3.6,0.2-7.4,0.8-11.2,1.2c-3.5,0.5-6.9,1.2-10.3,2
		c-3.8,0.9-7.7,2.1-11.3,3.3c-3.6,1.2-7.4,2.6-11,4.1c-3.3,1.4-6.6,2.7-10,4.4c-1.5,0.8-3,1.5-4.4,2.3c-1.7,0.9-3.3,2-5,3
		c-3.3,2.1-6.5,4.4-9.7,6.8l1.7-1.2c-3.9,2.9-7.7,6-11.3,9.4c-3,2.9-5.9,5.7-8.7,8.9c-3,3.3-5.9,6.9-8.6,10.6
		c-2.6,3.5-4.8,7.1-7.2,10.7c-2.1,3-3.9,6.2-5.4,9.5c-1.7,3.6-3,7.4-4.2,11.3c-0.2,0.6-0.3,1.4-0.5,2.1c-0.3,1.1-0.6,2-0.9,3
		c-0.5,1.5-0.9,3.2-1.4,4.7c-1.1,3.6-1.7,7.4-2.3,11v0.2c-0.2,0.9-0.3,1.7-0.3,2.6c0,0.8,0,1.4-0.2,2.1c-0.5,2.9-0.8,5.9-1.2,8.7
		c0-0.3,0.2-0.8,0.2-1.2c-0.6,3.8-0.9,7.5-1.1,11.3c0,2.1,0,4.1,0,6c0,2,0.5,4.2,0.6,6.3c0.2,2.1,0.3,4.1,0.8,6
		c0.3,2.3,0.8,4.5,1.1,6.6c0.2,0.8,0.3,1.7,0.5,2.4c0.3,1.2,0.6,2.3,0.9,3.5c0.6,2,1.2,3.9,1.8,5.7c0.5,1.7,1.1,3.3,1.7,5
		c0.8,2.1,1.4,4.2,2.1,6.2c0.8,2,1.7,4.1,2.4,6c0.8,2,1.7,3.9,2.6,5.9c1.7,3.5,3.3,6.9,5.3,10.3c2.3,3.8,4.8,7.5,7.4,11l-0.3-0.3
		c4.7,6.5,10,12.7,15.8,18.2c2.9,2.7,6,5.4,9,7.8s6.5,4.8,9.8,7.1c5.9,3.9,11.9,7.2,18.4,10.1c3,1.4,6,2.6,9.2,3.8
		c1.7,0.6,3.5,1.2,5.1,1.8c1.7,0.6,3.3,1.1,5,1.7c2.9,0.9,5.9,1.7,8.7,2.3c1.8,0.5,3.5,0.8,5.3,1.1c2,0.3,4.1,0.8,6,0.9
		c3.8,0.5,7.4,0.8,11.2,0.8c2,0,4.1,0,6,0c2,0,4.5-0.3,6.6-0.5c3.8-0.3,7.5-0.9,11.3-1.5c3.9-0.6,7.8-1.5,11.6-2.6
		c3.2-0.9,6.3-2,9.4-3c4.1-1.4,8-3,11.8-4.7c3.8-1.7,7.5-3.6,11-5.7c1.8-1.1,3.5-2.1,5.3-3.3c1.7-1.1,3.2-2.1,4.5-3.3
		c4.8-3.5,9.5-7.2,13.7-11.5c0.3-0.5,0.8-0.9,1.2-1.4c0.6-0.6,1.2-1.2,2-2c1.2-1.2,2.3-2.6,3.5-3.9c2.1-2.4,4.4-5,6.5-7.4
		c4.1-4.8,7.5-10,10.7-15.4c5.7-9.8,10.3-20.4,13.4-31.2C289,188,290.2,182.9,291.2,177.9L291.2,177.9z M284.7,191.9
		c-3,11-7.7,21.6-13.7,31.2c-3.5,5.4-7.1,10.6-11.2,15.5c-1.7,2-3.3,3.9-5.1,5.7c-2.1,2-4.2,3.9-6.5,5.9c-1.1,0.8-2.1,1.7-3.2,2.6
		c-1.5,1.2-3,2.3-4.5,3.5c-1.2,0.9-2.4,1.8-3.6,2.6c-1.2,0.9-2.4,1.8-3.8,2.4l-1.4,0.8c-0.8,0.5-1.5,0.9-2.4,1.4
		c-1.4,0.8-2.9,1.7-4.4,2.4c-5,2.7-10.3,5.1-15.5,7.2c-4.8,1.8-9.7,3.3-14.6,4.7c-5.1,1.2-10.4,2.1-15.7,2.9c-3,0.3-6,0.5-9.2,0.6
		c-1.5,0-3.2,0-4.8,0s-3.3,0-5,0s-3.3-0.2-5.1-0.3c-1.5-0.2-2.9-0.2-4.2-0.3c-2.6-0.3-5.3-0.5-7.8-0.9c-4.8-0.8-9.5-1.8-14.3-2.9
		c-1.2-0.3-2.6-0.8-3.8-1.1c-1.2-0.3-2.9-0.9-4.2-1.4c-2.4-0.8-4.7-1.7-6.9-2.7c-4.4-2-8.7-4.2-13-6.6c-5.3-3-10.3-6.5-14.9-10.3
		c-8.1-6.6-15.5-14.2-21.9-22.6c-3.2-4.4-6-9-8.7-13.7c-2.7-4.7-5-9.5-7.1-14.5c-1.2-3.3-2.4-6.8-3.3-10.3c-0.5-1.7-0.8-3.5-1.2-5.1
		c-0.3-1.5-0.6-3-0.8-4.5s-0.3-3.3-0.6-5c-0.3-1.7-0.5-3.5-0.8-5.3c-0.2-1.2-0.2-2.3-0.3-3.5c-0.2-1.5-0.2-2.9-0.3-4.4
		c0-2.7,0-5.3,0.2-8c0.2-5.1,0.3-10.4,0.9-15.5c0.3-1.8,0.6-3.6,1.1-5.4c0.2-0.8,0.3-1.4,0.6-2s0.3-1.1,0.5-1.5
		c0.3-1.1,0.6-2.1,0.9-3.2c0.8-2.6,1.5-5.1,2.4-7.7c0.6-1.8,1.4-3.8,2.1-5.6c0.6-1.1,1.1-2.1,1.7-3c0.8-1.5,1.5-3,2.3-4.5
		c0.6-1.1,1.2-2.3,1.7-3.3c0.9-1.8,1.7-3.5,2.6-5.3c0.8-1.4,1.4-2.9,2.1-4.2c0.8-1.4,1.8-3,2.7-4.5c2-3.2,4.2-6.2,6.5-9
		c1.2-1.5,2.6-3,3.8-4.5c1.8-2.1,3.8-4.1,5.7-6.2c2-2.1,3.8-3.6,5.9-5.3c1.1-0.9,2-1.7,3-2.6s2.1-1.8,3.3-2.6c2-1.5,4.1-3,6.2-4.4
		c1.4-0.9,2.7-1.8,4.2-2.6c1.5-0.8,2.7-1.8,4.2-2.6c2.6-1.5,5.1-2.9,7.8-4.2s5.6-2.6,8.3-3.8c2.1-0.8,4.2-1.5,6.5-2.1
		c2.6-0.8,5.1-1.4,7.7-2.1c2.6-0.8,5.1-1.1,7.7-1.5c2-0.5,4.1-0.8,6-1.1c3-0.3,6-0.6,9.2-0.9s6.5-0.2,9.7-0.2c2.9,0,5.7,0.2,8.6,0.5
		c2.4,0.2,4.8,0.5,7.2,0.8c5.3,0.9,10.4,1.8,15.5,3.2c5.7,1.5,11.2,3.3,16.6,5.6c2,0.9,3.9,1.8,5.9,2.9c1.5,0.8,3,1.5,4.4,2.3
		l4.4,2.6c4.8,2.9,9.5,6,13.9,9.4c2.1,1.8,4.2,3.5,6.3,5.4c2.1,2,4.2,4.1,6.3,6.2c7.5,7.8,14.2,16.7,19.5,26.2
		c0.8,1.5,1.4,3.2,2.1,4.8l-0.2-0.5c2.3,5.7,4.4,11.5,6,17.3v0.2c0.8,2.9,1.4,5.7,2,8.6c0.5,2,0.8,3.9,1.1,5.9
		c0.2,1.5,0.5,2.9,0.6,4.4c0.6,5.7,1.1,11.5,0.9,17.2c-0.2,5.7-0.6,11.5-1.4,17C287.1,181.7,286,186.8,284.7,191.9z M283.6,115.3
		L283.6,115.3z M240.6,256.2l-0.3,0.3L240.6,256.2z"/>
	<path class="st3" d="M291.3,141.8c0.6-11.9-1.1-23.7-4.8-35c-0.9-2.7-2.1-5.4-3.3-8.1s-2.7-5.7-4.2-8.4c-1.5-2.7-3.3-5.4-5.1-7.8
		c-1.7-2.4-3.5-4.8-5.4-7.1c-2.6-3.2-5.6-6.2-8.6-8.9c-2.7-2.4-5.4-4.8-8.3-6.9c-6.8-5.1-14-9.4-21.7-12.5l0.3,0.2
		c-0.9-0.5-2-0.9-3-1.4c-1.7-0.6-3.3-1.2-5.1-1.8c-0.8-0.3-1.7-0.5-2.4-0.8c-0.6-0.2-1.2-0.5-1.8-0.5c-1.1-0.3-2.1-0.5-3.2-0.8h-0.2
		c-1.1-0.2-2.1-0.3-3.3-0.6l0,0l3.2,1.2h0.2c2.6,1.1,5.3,2,7.8,3.2l-0.2-0.2c1.4,0.6,2.9,1.2,4.2,2c0.9,0.5,1.8,0.9,2.9,1.4
		c6.5,3.5,12.7,7.4,18.4,12.1l0,0c3.3,2.7,6.3,5.6,9.4,8.6c3.2,3.5,6,6.9,8.7,10.7c2.4,3.3,4.5,6.8,6.5,10.4
		c2.1,3.8,3.9,7.7,5.6,11.6c1.8,4.8,3.5,9.8,4.8,14.8c1.4,5.1,2.4,10.3,3,15.5c1.1,8.9,0.9,17.9-0.3,26.8c-1.4,9-3.9,17.9-7.7,26.2
		c-3.5,7.7-7.8,15.1-13.1,21.7l0,0c-0.8,1.1-1.7,2-2.6,3l0,0c8.7-9,15.8-19.6,20.8-31.2c1.8-4.2,3.3-8.6,4.7-13
		C289.6,158.3,291,150,291.3,141.8L291.3,141.8z M277.6,185.4L277.6,185.4L277.6,185.4z M277.7,102.6l-0.2-0.2L277.7,102.6z
		 M247.7,61l-0.3-0.2L247.7,61z M264.3,207.3L264.3,207.3z"/>
	<path class="st3" d="M125.3,223.9l-1.1-0.9l0,0c-6.6-5.4-12.7-11.6-17.8-18.6l0.2,0.2l-0.9-1.4l0,0l-0.2-0.2l0,0
		c-5.9-8.1-10.7-16.9-14.5-26.2c-1.2-3.3-2.4-6.6-3.2-10.1c-0.9-3.9-1.7-7.8-2.1-11.8c0,0.2,0,0.2,0,0.3c-1.1-8.7-1.1-17.6,0-26.4
		c0-0.5,0.2-0.9,0.2-1.5v0.2c0-0.2,0-0.2,0-0.3v-0.2v0.2c0.3-2.1,0.8-4.2,1.2-6.3c0.6-2.4,1.2-5,2-7.4c0.8-2.4,1.4-4.4,2.1-6.5
		c0.9-2.6,2-5.1,3-7.5c1.8-4.1,3.9-8,6.3-11.8c2.6-4.1,5.3-8,8.3-11.9c3-3.6,6-6.9,9.4-10.3c3.3-3.3,7.1-6.5,10.9-9.4l-0.2,0.2
		c2.6-1.8,5.1-3.5,7.7-5.3l0.2-0.2l5.4-3.3l0,0c-2,0.8-3.9,1.5-5.9,2.4c-0.2,0-0.2,0-0.3,0.2c-5.3,2.6-10.4,5.7-15.1,9.2
		c-2.3,1.7-4.5,3.5-6.6,5.3c-2.4,2.1-4.7,4.4-6.8,6.8c-4.5,5-8.4,10.3-11.9,16c-3.3,5.9-6.2,11.9-8.4,18.2
		c-2.1,5.9-3.5,11.8-4.4,17.9c-0.9,6.5-1.4,13.1-1.2,19.6c0.3,6.5,1.2,13.1,2.7,19.5c1.5,6,3.3,12.1,5.6,17.8
		c0.9,2.1,1.8,4.2,2.9,6.3c1.1,2.1,2.1,3.9,3.2,5.9c2.4,4.1,5.1,7.8,8,11.5C110,212,117.1,218.5,125.3,223.9L125.3,223.9
		L125.3,223.9z M93.9,99.9l-0.2,0.3L93.9,99.9z M85.9,127.5v0.2V127.5z M105.5,203.2L105.5,203.2L105.5,203.2L105.5,203.2
		L105.5,203.2z"/>
	<path class="st3" d="M220.7,237.6c-6.5,1.4-13.1,2.7-19.6,3.5h0.3c-10.6,1.2-21.1,0.9-31.5-0.5c-2.3-0.3-4.4-0.8-6.6-1.1
		c-1.8-0.3-3.5-0.8-5.3-1.1c-6.3-1.5-12.5-3.5-18.6-6l0,0l-2-0.9l0,0c6.3,3.9,13,7.1,19.9,9.5c0.8,0.3,1.5,0.6,2.3,0.8
		c1.4,0.5,2.7,0.8,4.1,1.2c3,0.8,6.2,1.4,9.2,1.8c5.6,0.8,11.3,1.1,17,0.8C200.5,245.2,211.1,242.4,220.7,237.6L220.7,237.6
		L220.7,237.6L220.7,237.6z M139.3,232.3L139.3,232.3z"/>
	<path class="st2" d="M272.2,92.1c-0.5-1.1-0.8-2.1-1.2-3c-0.3-0.9-0.8-1.7-1.2-2.4c-3.8-7.5-8.4-14.5-14-21
		c-5.9-6.9-12.5-13.1-19.8-18.6c-3.9-2.9-8.1-5.6-12.4-7.8c-4.4-2.4-8.7-4.7-13.4-6.6c-4.4-1.8-8.9-3.3-13.4-4.5
		c-4.8-1.4-9.7-2.3-14.6-2.9c-9.7-1.5-19.3-1.5-29-0.3l0.8-0.2c-7.5,0.8-14.9,2.4-22,4.8c-3.5,1.2-6.9,2.6-10.3,4.2
		c-3.6,1.7-7.2,3.6-10.9,5.7c-13.6,8.1-25.5,18.7-35.1,31.2l0,0c5.6-6.5,11.8-12.4,18.6-17.3L94,53.6c7.5-5.6,15.8-10.3,24.6-13.9
		c10.7-4.2,21.9-7.1,33.3-8.6l-0.8,0.2c1.1-0.2,2-0.3,2.9-0.3c10.3-1.1,20.5-0.9,30.8,0.5l3.5,0.6c2.6,0.5,5.1,1.1,7.5,1.7
		c2.4,0.6,4.8,1.4,7.1,2.1c4.4,1.5,8.7,3,13.1,4.7l-0.6-0.3c9.5,4.2,18.4,9.8,26.4,16.3c3.9,3.2,7.7,6.6,11.2,10.3
		c3.5,3.6,6.6,7.4,9.5,11.5l0,0C266.1,82.4,269.1,87.3,272.2,92.1L272.2,92.1z"/>
	<path class="st2" d="M277,185.9L277,185.9c-2.4,4.8-4.8,9.7-7.5,14.3c-1.4,2.4-2.9,4.7-4.4,7.1s-3.3,4.5-5,6.8
		c-3.3,4.1-6.8,7.8-10.6,11.5c-4.1,3.9-8.4,7.5-13,10.9c-2,1.5-4.1,2.9-6,4.2c-2.1,1.4-4.4,2.6-6.5,3.9c-4.5,2.6-9.2,4.8-14,6.8
		l0.3-0.2l-0.5,0.2h-0.2h0.2c-9.2,3.6-18.9,6-28.7,7.4c-11,1.4-22.2,1.2-33.2-0.3l-2.1-0.3c-19.6-3-38-11.2-53.5-23.7l0,0
		c-5.1-4.2-10-8.7-14.3-13.7l0,0c8.3,10,18.1,18.7,29.1,25.6c10.9,6.8,22.8,11.8,35.1,14.8c12.1,3,24.6,3.9,36.9,2.7
		c11.8-1.2,23.2-4.2,34.2-8.7c7.8-3.3,15.2-7.4,22-12.2c6.8-4.7,13-10.3,18.4-16.4c5.3-5.9,10-12.4,13.9-19.2
		c3.9-6.5,6.9-13.3,9-20.5C276.8,186.5,277,186.2,277,185.9L277,185.9z M209.7,251L209.7,251L209.7,251L209.7,251L209.7,251z"/>
</g>
</svg>
