<?xml version="1.0" encoding="utf-8"?>
<!-- Generator: Adobe Illustrator 25.1.0, SVG Export Plug-In . SVG Version: 6.00 Build 0)  -->
<svg version="1.1" id="Layer_1" xmlns="http://www.w3.org/2000/svg" xmlns:xlink="http://www.w3.org/1999/xlink" x="0px" y="0px"
	 viewBox="0 0 127 95" style="enable-background:new 0 0 127 95;" xml:space="preserve">
<style type="text/css">
	.st0{fill:none;stroke:#39638A;}
	.st1{fill:#39638A;}
</style>
<rect x="5.5" y="5.5" class="st0" width="116" height="84"/>
<path class="st1" d="M15.3,44.2c-0.6,0-1-0.1-1.3-0.2c-0.2-0.1-0.3-0.3-0.3-0.6v-0.7c0-0.2,0-0.4,0-0.7v-0.1l0-5.5l0-15.7
	c0-1.6,0-3-0.1-4.2c0-0.3,0.1-0.6,0.2-0.8c0.1-0.2,0.3-0.3,0.5-0.3h2.4c0.4,0,0.6,0,0.8,0.1c0.3,0.1,0.4,0.3,0.4,0.6
	c0,0.2-0.1,0.4-0.2,0.5c-0.2,0.1-0.3,0.2-0.5,0.2h-0.6l-0.6,0l-0.6,0c-0.2,0-0.3,0-0.4,0.1c-0.1,0.1-0.1,0.2-0.1,0.3
	c0,1.2,0,2.3,0,3.2v3.2v4.8c0,0.1,0,0.1,0.1,0.1h0h0c0.6-0.1,1.3-0.1,2.1-0.1c0.4,0,0.6,0.2,0.6,0.5c0,0.3-0.1,0.4-0.2,0.5
	c-0.1,0.1-0.2,0.1-0.4,0.1h-2.2c-0.1,0-0.2,0.1-0.2,0.2l0.1,5.6c0.1,1.7,0.1,3.8,0.1,6v1.4h1.6h1.6h0.3c0.5,0,0.7,0.2,0.7,0.5
	c0,0.4-0.1,0.6-0.3,0.7c-0.3,0.1-0.9,0.2-1.9,0.2H15.3z M23.9,44.5c-0.4,0-0.6-0.3-0.6-0.9c0.1-0.2,0.1-0.6,0.1-1.3
	c0-2.3,0-5.8,0.1-10.4c0.1-4.6,0.1-7.9,0.1-9.9l0.1-1.4l0.1-1.1c0-0.2,0.1-0.3,0.3-0.3c0.1,0,0.3,0,0.5,0.1l0.1,0c0,0.6,0,1.1,0,1.5
	v1.5v4.1c0,1.2,0,2.6,0,4.1c0,0.1,0,0.4,0,0.8l0,0.8c0,0.5,0,1,0,1.6c0,0.6,0,1.1,0,1.6l0,1.6l-0.1,0.3l0,0c0,0.1,0,0.1,0,0.2v0.2
	c0,0.2,0,0.4,0.1,0.5l-0.1,3.6v0.2c0,0.4,0,0.7,0,0.8c0,0.1,0.1,0.2,0.2,0.2l2,0.1c0.6,0,1,0,1.2,0c0.2,0,0.4,0,0.4,0h0.1
	c0.1,0,0.3,0.1,0.4,0.2c0.1,0.1,0.2,0.3,0.2,0.4c0,0.3-0.2,0.5-0.6,0.5c-0.4,0-1.5,0-3.2,0l0.1,0c-0.3,0-0.5,0-0.7,0
	C24.4,44.5,24.1,44.5,23.9,44.5z M33.4,44.5c-0.5,0-0.7-0.3-0.8-0.8v-0.5c0-0.1,0-0.3,0-0.5l-0.2-0.2c0.2-0.5,0.3-1.1,0.3-1.6
	c0-0.6,0-1.4-0.1-2.5L32.6,36c0-1.3,0-3.2,0.1-5.7c0.1-2.3,0.2-4.2,0.2-5.7l-0.1-2.3c-0.1-0.7-0.1-1.4-0.1-2.3
	c0-0.4,0.1-0.6,0.3-0.8c0.2-0.2,0.5-0.3,0.8-0.3c0.3,0,0.5,0.1,0.6,0.2c0.1,0,0.4,0.1,1.1,0.2c0.6,0.1,1.2,0.2,1.6,0.3
	c0.5,0.2,0.7,0.3,0.7,0.6c0,0.3-0.2,0.5-0.7,0.8c-1.4-0.5-2.5-0.7-3.1-0.7l-0.2,0.2c0,0.2,0,0.8,0,1.6c0,1.1,0,2.1-0.1,2.9
	c0,0.9,0,1.9,0,3c0,0.7,0.2,1.1,0.5,1.1l0.6,0c0.2,0,0.4,0,0.6,0c1,0,1.5,0.2,1.5,0.7c0,0.3-0.1,0.5-0.2,0.7
	c-0.1,0.2-0.3,0.3-0.6,0.3c-0.4,0-0.7-0.1-0.9-0.3l-1.2-0.2h-0.2l-0.2,0.2v0.1c0.1,0.4,0.1,1.4,0.1,3c0,1,0,1.9,0,2.7l0,2.7
	c0,1,0,2,0.1,3c0,0.6,0.2,1,0.4,1.2c0.2,0.2,0.6,0.3,1.3,0.3l0.7,0c0.2,0,0.5,0,0.8,0c0.7,0,1.1,0.2,1.1,0.5c0,0.5-0.6,0.7-1.7,0.7
	H33.4z M52.1,44.2c-0.2,0-0.4-0.1-0.5-0.2c-0.1-0.2-0.2-0.4-0.2-0.7c0-0.2-0.1-0.4-0.2-0.5l0-0.1c-0.2-1.2-0.6-2.6-1.3-4.4l-0.7-2
	c-0.1-0.1-0.3-0.7-0.7-1.9l-0.3-0.9C46,26.4,44.6,22.5,44,22c-0.2,0.7-0.3,1.6-0.3,2.7c0,0.6,0,1.1,0,1.5l0,1.5l0,0.9
	c0,0.3,0,0.6,0,0.9c0,0.6,0,1,0.1,1.4c0.1,0.8,0.1,1.2,0.1,1.2h-0.1c0,4.2,0.1,6.6,0.3,7v3.4c0.1,0.2,0.2,0.5,0.2,0.8
	c0,0.2-0.1,0.4-0.2,0.5c-0.1,0.2-0.3,0.2-0.5,0.2c-0.5,0-0.8-0.7-0.8-2.1l0.1-1.2c0.1-0.4,0.1-0.8,0.1-1.3c0-1.2,0-3-0.1-5.5
	c-0.1-2.4-0.1-4.3-0.1-5.5c0-0.7,0-1.9,0.1-3.4c0.1-1.5,0.1-2.6,0.1-3.3v-0.5c0-1.2,0.2-2.1,0.7-2.4l0.1,0.1l0.4-0.1
	c0.1,0,0.2,0.1,0.3,0.2c0.1,0.1,0.2,0.2,0.2,0.3l0.1,0.2c0,0.1,0,0.1,0,0.2c0,0,0,0,0,0c0.4,1.8,1.3,4.3,2.7,7.6
	c1.4,3.4,2.3,5.7,2.7,6.8c0.3,0.9,0.5,1.7,0.6,2.4c0.5,2.2,1.1,3.8,1.7,5l0.1-0.1c0.6-5.6,0.9-12.5,0.9-20.7l0-0.5
	c0-0.1,0-0.3,0-0.5c0-0.5,0.2-0.8,0.5-0.8c0.2,0,0.4,0.1,0.6,0.3c0.2,0.2,0.3,0.5,0.3,0.8v2.5l-0.2,0.3c0,2.4-0.1,6.4-0.4,11.9
	c-0.3,5.5-0.5,8.5-0.8,9L52.5,44v0l0,0L52.1,44.2z M67.3,44.3c-0.4,0-0.6-0.1-0.7-0.2c-0.1-0.1-0.2-0.3-0.2-0.7
	c-0.2-1.8-0.4-3-0.4-3.5l-0.2-1.5c-0.6-0.1-1.2-0.2-1.9-0.2l-1.4-0.1c-0.6-0.1-1.1-0.1-1.3-0.1c-0.2,0-0.2,0.1-0.3,0.2
	c0,0.1,0,0.1,0,0.1l-0.1,0.8c0,0.5-0.2,1.4-0.4,2.7c-0.1,0.7-0.3,1.2-0.5,1.6c-0.2,0.4-0.4,0.6-0.6,0.6c-0.2,0-0.3-0.1-0.5-0.2
	c-0.2-0.2-0.3-0.3-0.3-0.5l0-0.1l0-0.1c0.5-1.8,0.8-3.6,1.1-5.4l0.5-2.4l0.5-2.9c0,0,0.1-0.8,0.4-2.5c0.1-0.7,0.4-1.8,0.7-3.3
	c0.4-1.7,0.6-2.9,0.6-3.5c0-0.1,0.1-0.5,0.2-1.4c0.1-1,0.2-1.7,0.3-2.1c0.1-0.7,0.2-1,0.2-1.1h0.3c0.1,0,0.2,0,0.3,0
	c0.3,0,0.5-0.1,0.7-0.2c0.2,0,0.3,0.1,0.5,0.2c0.2,0.1,0.2,0.2,0.2,0.4c0,1.2,0.1,2.6,0.3,4.2c0.1,0.8,0.2,1.5,0.2,2
	c0.3,3.3,1,9.4,2.1,18.4v0.1C67.7,44,67.6,44.2,67.3,44.3z M65.6,37.5c-0.3-3.6-0.7-9-1.4-16.1l-2.1,10.1c-0.6,2.9-0.9,4.8-0.9,5.5
	c0,0.1,0.5,0.2,1.4,0.3c1,0.1,1.8,0.2,2.5,0.2H65.6z"/>
<path class="st1" d="M16.4,78.8c-0.6,0-1.4,0-2.3,0c-0.2,0-0.3-0.1-0.5-0.2c-0.1-0.1-0.2-0.3-0.2-0.4c0-0.3,0.2-0.5,0.6-0.5h1.5
	c0-2.9-0.1-6.6-0.3-11c-0.1-3.5-0.2-6.3-0.3-8.4l0-1.9v-2.5c0-1.3,0-2.1-0.1-2.4h-1.3c-0.3,0-0.4-0.2-0.4-0.5c0-0.2,0.1-0.4,0.3-0.5
	c0.2-0.1,0.6-0.1,1.4-0.1H16c0.4,0,0.9,0,1.4,0c0.2,0,0.4,0.1,0.5,0.2c0.1,0.1,0.2,0.2,0.2,0.4c0,0.2,0,0.3-0.1,0.4
	c-0.1,0.1-0.2,0.2-0.3,0.2c-0.2,0-0.3,0-0.5,0h-0.5h-0.4c-0.3,0-0.4,0-0.5,0.1l-0.1,0.2c0,2,0.2,6,0.5,12c0.3,5.5,0.5,9.5,0.5,12
	v1.1c0,0.3,0,0.7,0,1h1.4c0.6,0,0.9,0.2,0.9,0.5c0,0.2-0.1,0.3-0.2,0.5c-0.1,0.1-0.2,0.2-0.3,0.2H16.4z M26.9,79.1
	c0-2-0.3-4.8-0.9-8.6c-0.6-3.8-1.4-8-2.4-12.5l-0.3-1.2l-0.5-1.7c-0.2-0.5-0.2-0.9-0.2-1c0-0.1,0.1-0.2,0.2-0.3
	c0.1-0.1,0.2-0.2,0.3-0.2c0.4,0,0.6,0.4,0.8,1.2c0.1,0.3,0.2,0.7,0.3,1.1c0.1,0.4,0.2,0.7,0.2,0.9c0.1,0.4,0.1,0.6,0.1,0.7
	c0.5,2,0.8,3.2,0.9,3.7l0.4,1.9l0.3,1.8l0.3,1.9c0.1,0.7,0.2,1.3,0.3,1.8l0.6,3.7c0,0.1,0.1,0.7,0.3,1.9l0.3,1.9
	c0.5-1.6,0.9-4.2,1.3-7.5c0.4-3.1,0.9-6.3,1.5-9.5c0.6-2.7,0.9-4.7,1.2-6l0.5-0.2c0.1,0,0.2,0.1,0.3,0.2c0.1,0.1,0.2,0.2,0.2,0.2
	c0,0.6-0.1,1.3-0.3,2.3l-0.2,1l-0.6,3c-0.4,1.6-0.6,2.9-0.8,3.8c-0.1,0.9-0.3,2.2-0.5,3.8l-0.1,0.9c-0.1,1.4-0.2,2.3-0.3,2.8
	c-0.1,0.5-0.2,1.1-0.4,1.9c-0.2,0.8-0.4,1.4-0.5,2l-0.1,0.9c-0.1,0.9-0.2,1.7-0.3,2.4c-0.2,0.9-0.6,1.3-1.2,1.3L26.9,79.1z
	 M27.8,76.4L27.8,76.4v0.2V76.4z M45,79.3c-0.4,0-0.6-0.1-0.7-0.2c-0.1-0.1-0.2-0.3-0.2-0.7c-0.2-1.8-0.4-3-0.4-3.5l-0.2-1.5
	c-0.6-0.1-1.2-0.2-1.9-0.2l-1.4-0.1c-0.6-0.1-1.1-0.1-1.3-0.1c-0.2,0-0.2,0.1-0.3,0.2c0,0.1,0,0.1,0,0.1l-0.1,0.8
	c0,0.5-0.2,1.4-0.4,2.7c-0.1,0.7-0.3,1.2-0.5,1.6c-0.2,0.4-0.4,0.6-0.6,0.6c-0.2,0-0.3-0.1-0.5-0.2c-0.2-0.2-0.3-0.3-0.3-0.5l0-0.1
	l0-0.1c0.5-1.8,0.8-3.6,1.1-5.4l0.5-2.4l0.5-2.9c0,0,0.1-0.8,0.4-2.5c0.1-0.7,0.4-1.8,0.7-3.3c0.4-1.7,0.6-2.9,0.6-3.5
	c0-0.1,0.1-0.5,0.2-1.4c0.1-1,0.2-1.7,0.3-2.1c0.1-0.7,0.2-1,0.2-1.1h0.3c0.1,0,0.2,0,0.3,0c0.3,0,0.5-0.1,0.7-0.2
	c0.2,0,0.3,0.1,0.5,0.2c0.2,0.1,0.2,0.2,0.2,0.4c0,1.2,0.1,2.6,0.3,4.2c0.1,0.8,0.2,1.5,0.2,2c0.3,3.3,1,9.4,2.1,18.4v0.1
	C45.3,79,45.2,79.2,45,79.3z M43.3,72.5c-0.3-3.6-0.7-9-1.4-16.1l-2.1,10.1c-0.6,2.9-0.9,4.8-0.9,5.5c0,0.1,0.5,0.2,1.4,0.3
	c1,0.1,1.8,0.2,2.5,0.2H43.3z M59.1,79.2c-0.2,0-0.4-0.1-0.5-0.2c-0.1-0.2-0.2-0.4-0.2-0.7c0-0.2-0.1-0.4-0.2-0.5l0-0.1
	c-0.2-1.2-0.6-2.6-1.3-4.4l-0.7-2c-0.1-0.1-0.3-0.7-0.7-1.9l-0.3-0.9C53,61.4,51.6,57.5,51,57c-0.2,0.7-0.3,1.6-0.3,2.7
	c0,0.6,0,1.1,0,1.5l0,1.5l0,0.9c0,0.3,0,0.6,0,0.9c0,0.6,0,1,0.1,1.4c0.1,0.8,0.1,1.2,0.1,1.2h-0.1c0,4.2,0.1,6.6,0.3,7v3.4
	c0.1,0.2,0.2,0.5,0.2,0.8c0,0.2-0.1,0.4-0.2,0.5c-0.1,0.2-0.3,0.2-0.5,0.2c-0.5,0-0.8-0.7-0.8-2.1l0.1-1.2c0.1-0.4,0.1-0.8,0.1-1.3
	c0-1.2,0-3-0.1-5.5s-0.1-4.3-0.1-5.5c0-0.7,0-1.9,0.1-3.4c0.1-1.5,0.1-2.6,0.1-3.3v-0.5c0-1.2,0.2-2.1,0.7-2.4l0.1,0.1L51,54
	c0.1,0,0.2,0.1,0.3,0.2c0.1,0.1,0.2,0.2,0.2,0.3l0.1,0.2c0,0.1,0,0.1,0,0.2c0,0,0,0,0,0c0.4,1.8,1.3,4.3,2.7,7.6
	c1.4,3.4,2.3,5.7,2.7,6.8c0.3,0.9,0.5,1.7,0.6,2.4c0.5,2.2,1.1,3.8,1.7,5l0.1-0.1c0.6-5.6,0.9-12.5,0.9-20.7l0-0.5
	c0-0.1,0-0.3,0-0.5c0-0.5,0.2-0.8,0.5-0.8c0.2,0,0.4,0.1,0.6,0.3c0.2,0.2,0.3,0.5,0.3,0.8v2.5l-0.2,0.3c0,2.4-0.1,6.4-0.4,11.9
	c-0.3,5.5-0.5,8.5-0.8,9L59.5,79v0l0,0L59.1,79.2z M75.2,79.7c-0.6,0-1.3-1.1-2.2-3.4c-0.8-2.1-1.5-4.4-2.1-6.8
	c-0.6-2.5-0.9-4.2-0.9-5.2L70,64.1l-0.6,1.2c-0.3,0.5-0.5,1-0.6,1.3c-0.1,0.3-0.3,0.7-0.4,1.3c-0.2,0.5-0.2,1-0.2,1.5s0,1-0.1,1.4
	L68,72.1V77c0,0.2,0,0.6,0.1,1.1c0.1,0.5,0.1,0.8,0.1,1.1c0,0.1-0.1,0.2-0.2,0.3c-0.1,0.1-0.3,0.2-0.4,0.2c-0.3,0-0.6-0.1-0.7-0.2
	c-0.1-0.1-0.2-0.3-0.2-0.6v-7.1c0-0.4,0.1-1.2,0.2-2.4c0.1-1.2,0.2-2,0.2-2.4c0-1.1,0.1-2.3,0.2-3.7c0.1-1.4,0.2-2.6,0.2-3.6v-5.3
	c0.2-0.3,0.4-0.4,0.7-0.4c0.2,0,0.4,0.1,0.5,0.2c0.2,0.1,0.2,0.3,0.2,0.5c-0.2,0.5-0.3,1.1-0.3,1.8l-0.1,4c-0.1,1.2-0.1,2.6-0.1,4
	c0.3-0.1,1.2-1.8,3-5.2c1.7-3.4,2.7-5.1,2.8-5.1c0.7,0,1,0.2,1,0.6c-1.6,2.4-3,4.8-4,7l0,1.2c0,0.4,0,0.8,0,1.2
	c0,1.1,0.4,3.2,1.3,6.3c0.9,3.1,1.6,5.2,2.2,6.4c0.3,0.4,0.4,0.6,0.5,0.6c0.3,0.4,0.4,0.7,0.5,0.9c0.1,0.2,0.2,0.5,0.2,0.7
	c0,0.2-0.1,0.3-0.2,0.4C75.6,79.6,75.4,79.7,75.2,79.7z M81.5,79c-0.6,0-0.9-0.1-1-0.4c-0.1,0-0.2,0-0.3,0h-0.3
	c-0.6,0-0.9-0.1-1.1-0.4c0-0.2,0.1-0.3,0.3-0.5l0.2-0.2h1.1l0.2-0.2l0.1-0.3l0-0.5c0-1.5,0-2.9-0.1-4.1l-0.1-1.4l-0.1-2.8
	c0-1,0-2.5,0.1-4.4l0.1-4.4c0-1.9-0.1-3.4-0.2-4.4C80.2,55,79.8,55,79.3,55l-0.4,0c-0.2,0-0.3,0-0.5,0c-0.5,0-0.7-0.2-0.7-0.6
	c0-0.1,0.1-0.2,0.3-0.3c0.2-0.1,0.4-0.2,0.6-0.2c1,0,1.9,0.1,2.9,0.2c0.6,0,1.2,0.1,1.7,0.3c0.5,0.2,0.7,0.4,0.7,0.6
	c0,0.1,0,0.2-0.1,0.3l-0.9,0.1c-0.2-0.2-0.5-0.2-1.1-0.2l-0.2,0.1c0.1,0.2,0.1,0.9,0.1,2c0,1.7,0,3.2,0,4.5l-0.1,4.5
	c0,1.1,0.1,2.5,0.2,4.1c0.1,1.8,0.1,3.2,0.1,4.2v0.5c0,0.2,0,0.4,0,0.7c0,0.6,0,0.9,0.1,1.1l0,0.1c0,0.3,0.3,0.4,0.8,0.4
	c0.2,0,0.4,0,0.6,0h0.6c0.7,0,1.1,0.2,1.1,0.5c0,0.2-0.1,0.4-0.2,0.6c-0.2,0.1-0.4,0.2-0.6,0.2c-0.2,0-0.4,0-0.6-0.1
	c-0.2,0-0.4,0-0.6,0c-0.2,0-0.4,0.1-0.7,0.2C81.9,78.9,81.7,79,81.5,79z M98.2,79.2c-0.2,0-0.4-0.1-0.5-0.2
	c-0.1-0.2-0.2-0.4-0.2-0.7c0-0.2-0.1-0.4-0.2-0.5l0-0.1c-0.2-1.2-0.6-2.6-1.3-4.4l-0.7-2c-0.1-0.1-0.3-0.7-0.7-1.9l-0.3-0.9
	c-2.3-7-3.7-10.9-4.3-11.4c-0.2,0.7-0.3,1.6-0.3,2.7c0,0.6,0,1.1,0,1.5l0,1.5l0,0.9c0,0.3,0,0.6,0,0.9c0,0.6,0,1,0.1,1.4
	c0.1,0.8,0.1,1.2,0.1,1.2h-0.1c0,4.2,0.1,6.6,0.3,7v3.4c0.1,0.2,0.2,0.5,0.2,0.8c0,0.2-0.1,0.4-0.2,0.5c-0.1,0.2-0.3,0.2-0.5,0.2
	c-0.5,0-0.8-0.7-0.8-2.1l0.1-1.2c0.1-0.4,0.1-0.8,0.1-1.3c0-1.2,0-3-0.1-5.5c-0.1-2.4-0.1-4.3-0.1-5.5c0-0.7,0-1.9,0.1-3.4
	c0.1-1.5,0.1-2.6,0.1-3.3v-0.5c0-1.2,0.2-2.1,0.7-2.4l0.1,0.1L90,54c0.1,0,0.2,0.1,0.3,0.2c0.1,0.1,0.2,0.2,0.2,0.3l0.1,0.2
	c0,0.1,0,0.1,0,0.2c0,0,0,0,0,0c0.4,1.8,1.3,4.3,2.7,7.6c1.4,3.4,2.3,5.7,2.7,6.8c0.3,0.9,0.5,1.7,0.6,2.4c0.5,2.2,1.1,3.8,1.7,5
	l0.1-0.1c0.6-5.6,0.9-12.5,0.9-20.7l0-0.5c0-0.1,0-0.3,0-0.5c0-0.5,0.2-0.8,0.5-0.8c0.2,0,0.4,0.1,0.6,0.3c0.2,0.2,0.3,0.5,0.3,0.8
	v2.5l-0.2,0.3c0,2.4-0.1,6.4-0.4,11.9c-0.3,5.5-0.5,8.5-0.8,9L98.6,79v0l0,0L98.2,79.2z M113.4,79.3c-0.4,0-0.6-0.1-0.7-0.2
	c-0.1-0.1-0.2-0.3-0.2-0.7c-0.2-1.8-0.4-3-0.4-3.5l-0.2-1.5c-0.6-0.1-1.2-0.2-1.9-0.2l-1.4-0.1c-0.6-0.1-1.1-0.1-1.3-0.1
	c-0.2,0-0.2,0.1-0.3,0.2c0,0.1,0,0.1,0,0.1l-0.1,0.8c0,0.5-0.2,1.4-0.4,2.7c-0.1,0.7-0.3,1.2-0.5,1.6c-0.2,0.4-0.4,0.6-0.6,0.6
	c-0.2,0-0.3-0.1-0.5-0.2c-0.2-0.2-0.3-0.3-0.3-0.5l0-0.1l0-0.1c0.5-1.8,0.8-3.6,1.1-5.4l0.5-2.4l0.5-2.9c0,0,0.1-0.8,0.4-2.5
	c0.1-0.7,0.4-1.8,0.7-3.3c0.4-1.7,0.6-2.9,0.6-3.5c0-0.1,0.1-0.5,0.2-1.4c0.1-1,0.2-1.7,0.3-2.1c0.1-0.7,0.2-1,0.2-1.1h0.3
	c0.1,0,0.2,0,0.3,0c0.3,0,0.5-0.1,0.7-0.2c0.2,0,0.3,0.1,0.5,0.2c0.2,0.1,0.2,0.2,0.2,0.4c0,1.2,0.1,2.6,0.3,4.2
	c0.1,0.8,0.2,1.5,0.2,2c0.3,3.3,1,9.4,2.1,18.4v0.1C113.7,79,113.6,79.2,113.4,79.3z M111.7,72.5c-0.3-3.6-0.7-9-1.4-16.1l-2.1,10.1
	c-0.6,2.9-0.9,4.8-0.9,5.5c0,0.1,0.5,0.2,1.4,0.3c1,0.1,1.8,0.2,2.5,0.2H111.7z"/>
</svg>
